<svg width="320" height="274" viewBox="0 0 320 274" fill="none" xmlns="http://www.w3.org/2000/svg">
<g id="comments_ui">
<path id="bg" fill-rule="evenodd" clip-rule="evenodd" d="M0 0H320V274H0V0Z" fill="white"/>
<g id="bg_2" filter="url(#filter0_d)">
<path fill-rule="evenodd" clip-rule="evenodd" d="M23 224H297V274H23V224Z" fill="white"/>
</g>
<path id="Add a comment" fill-rule="evenodd" clip-rule="evenodd" d="M25.156 250.578L24.428 253H23.084L26.178 243.354H27.858L30.938 253H29.538L28.81 250.578H25.156ZM26.99 244.46L25.478 249.5H28.488L26.99 244.46ZM38.064 253H36.93L36.804 251.978C36.5613 252.351 36.258 252.643 35.894 252.853C35.53 253.063 35.124 253.168 34.676 253.168C33.7987 253.168 33.115 252.823 32.625 252.132C32.135 251.441 31.89 250.513 31.89 249.346C31.89 248.59 32.0067 247.918 32.24 247.33C32.4733 246.742 32.8093 246.282 33.248 245.951C33.6867 245.62 34.2 245.454 34.788 245.454C35.544 245.454 36.2067 245.757 36.776 246.364V242.5L38.064 242.654V253ZM34.956 252.146C35.348 252.146 35.684 252.055 35.964 251.873C36.244 251.691 36.5147 251.418 36.776 251.054V247.442C36.5333 247.125 36.2743 246.884 35.999 246.721C35.7237 246.558 35.4133 246.476 35.068 246.476C34.4987 246.476 34.0577 246.714 33.745 247.19C33.4323 247.666 33.276 248.375 33.276 249.318C33.276 250.27 33.4207 250.979 33.71 251.446C33.9993 251.913 34.4147 252.146 34.956 252.146ZM46.436 253H45.302L45.176 251.978C44.9333 252.351 44.63 252.643 44.266 252.853C43.902 253.063 43.496 253.168 43.048 253.168C42.1707 253.168 41.487 252.823 40.997 252.132C40.507 251.441 40.262 250.513 40.262 249.346C40.262 248.59 40.3787 247.918 40.612 247.33C40.8453 246.742 41.1813 246.282 41.62 245.951C42.0587 245.62 42.572 245.454 43.16 245.454C43.916 245.454 44.5787 245.757 45.148 246.364V242.5L46.436 242.654V253ZM43.328 252.146C43.72 252.146 44.056 252.055 44.336 251.873C44.616 251.691 44.8867 251.418 45.148 251.054V247.442C44.9053 247.125 44.6463 246.884 44.371 246.721C44.0957 246.558 43.7853 246.476 43.44 246.476C42.8707 246.476 42.4297 246.714 42.117 247.19C41.8043 247.666 41.648 248.375 41.648 249.318C41.648 250.27 41.7927 250.979 42.082 251.446C42.3713 251.913 42.7867 252.146 43.328 252.146ZM57.776 251.278C57.776 251.577 57.8273 251.798 57.93 251.943C58.0327 252.088 58.1867 252.197 58.392 252.272L58.098 253.168C57.7153 253.121 57.4073 253.014 57.174 252.846C56.9407 252.678 56.768 252.417 56.656 252.062C56.1613 252.799 55.4287 253.168 54.458 253.168C53.73 253.168 53.156 252.963 52.736 252.552C52.316 252.141 52.106 251.605 52.106 250.942C52.106 250.158 52.3883 249.556 52.953 249.136C53.5177 248.716 54.318 248.506 55.354 248.506H56.488V247.96C56.488 247.437 56.362 247.064 56.11 246.84C55.858 246.616 55.4707 246.504 54.948 246.504C54.4067 246.504 53.744 246.635 52.96 246.896L52.638 245.958C53.5527 245.622 54.402 245.454 55.186 245.454C56.054 245.454 56.7027 245.666 57.132 246.091C57.5613 246.516 57.776 247.12 57.776 247.904V251.278ZM54.752 252.202C55.4893 252.202 56.068 251.819 56.488 251.054V249.36H55.522C54.1593 249.36 53.478 249.864 53.478 250.872C53.478 251.311 53.5853 251.642 53.8 251.866C54.0147 252.09 54.332 252.202 54.752 252.202ZM66.82 245.454C67.2587 245.454 67.66 245.517 68.024 245.643C68.388 245.769 68.738 245.972 69.074 246.252L68.444 247.092C68.192 246.896 67.9447 246.751 67.702 246.658C67.4593 246.565 67.184 246.518 66.876 246.518C66.2787 246.518 65.8143 246.756 65.483 247.232C65.1517 247.708 64.986 248.413 64.986 249.346C64.986 250.279 65.1493 250.968 65.476 251.411C65.8027 251.854 66.2693 252.076 66.876 252.076C67.1747 252.076 67.443 252.029 67.681 251.936C67.919 251.843 68.178 251.689 68.458 251.474L69.074 252.356C68.402 252.897 67.6507 253.168 66.82 253.168C65.8213 253.168 65.035 252.832 64.461 252.16C63.887 251.488 63.6 250.559 63.6 249.374C63.6 248.59 63.7307 247.904 63.992 247.316C64.2533 246.728 64.6243 246.271 65.105 245.944C65.5857 245.617 66.1573 245.454 66.82 245.454ZM73.596 245.454C74.632 245.454 75.437 245.799 76.011 246.49C76.585 247.181 76.872 248.119 76.872 249.304C76.872 250.069 76.7413 250.744 76.48 251.327C76.2187 251.91 75.8407 252.363 75.346 252.685C74.8513 253.007 74.2633 253.168 73.582 253.168C72.546 253.168 71.7387 252.823 71.16 252.132C70.5813 251.441 70.292 250.503 70.292 249.318C70.292 248.553 70.4227 247.878 70.684 247.295C70.9453 246.712 71.3233 246.259 71.818 245.937C72.3127 245.615 72.9053 245.454 73.596 245.454ZM73.596 246.49C72.3173 246.49 71.678 247.433 71.678 249.318C71.678 251.194 72.3127 252.132 73.582 252.132C74.8513 252.132 75.486 251.189 75.486 249.304C75.486 247.428 74.856 246.49 73.596 246.49ZM86.406 245.454C87.0127 245.454 87.498 245.657 87.862 246.063C88.226 246.469 88.408 247.017 88.408 247.708V253H87.12V247.89C87.12 246.938 86.7747 246.462 86.084 246.462C85.72 246.462 85.412 246.567 85.16 246.777C84.908 246.987 84.6373 247.316 84.348 247.764V253H83.06V247.89C83.06 246.938 82.7147 246.462 82.024 246.462C81.6507 246.462 81.338 246.569 81.086 246.784C80.834 246.999 80.568 247.325 80.288 247.764V253H79V245.622H80.106L80.218 246.7C80.7687 245.869 81.478 245.454 82.346 245.454C82.8033 245.454 83.193 245.571 83.515 245.804C83.837 246.037 84.068 246.364 84.208 246.784C84.4973 246.355 84.817 246.026 85.167 245.797C85.517 245.568 85.93 245.454 86.406 245.454ZM98.404 245.454C99.0107 245.454 99.496 245.657 99.86 246.063C100.224 246.469 100.406 247.017 100.406 247.708V253H99.118V247.89C99.118 246.938 98.7727 246.462 98.082 246.462C97.718 246.462 97.41 246.567 97.158 246.777C96.906 246.987 96.6353 247.316 96.346 247.764V253H95.058V247.89C95.058 246.938 94.7127 246.462 94.022 246.462C93.6487 246.462 93.336 246.569 93.084 246.784C92.832 246.999 92.566 247.325 92.286 247.764V253H90.998V245.622H92.104L92.216 246.7C92.7667 245.869 93.476 245.454 94.344 245.454C94.8013 245.454 95.191 245.571 95.513 245.804C95.835 246.037 96.066 246.364 96.206 246.784C96.4953 246.355 96.815 246.026 97.165 245.797C97.515 245.568 97.928 245.454 98.404 245.454ZM108.568 249.094C108.568 249.309 108.559 249.528 108.54 249.752H103.836C103.892 250.564 104.097 251.161 104.452 251.544C104.807 251.927 105.264 252.118 105.824 252.118C106.179 252.118 106.505 252.067 106.804 251.964C107.103 251.861 107.415 251.698 107.742 251.474L108.302 252.244C107.518 252.86 106.659 253.168 105.726 253.168C104.699 253.168 103.899 252.832 103.325 252.16C102.751 251.488 102.464 250.564 102.464 249.388C102.464 248.623 102.588 247.944 102.835 247.351C103.082 246.758 103.437 246.294 103.899 245.958C104.361 245.622 104.905 245.454 105.53 245.454C106.51 245.454 107.261 245.776 107.784 246.42C108.307 247.064 108.568 247.955 108.568 249.094ZM107.294 248.716C107.294 247.988 107.149 247.433 106.86 247.05C106.571 246.667 106.137 246.476 105.558 246.476C104.503 246.476 103.929 247.251 103.836 248.8H107.294V248.716ZM114.168 245.454C114.84 245.454 115.365 245.655 115.743 246.056C116.121 246.457 116.31 247.008 116.31 247.708V253H115.022V247.89C115.022 247.367 114.924 246.999 114.728 246.784C114.532 246.569 114.243 246.462 113.86 246.462C113.468 246.462 113.123 246.574 112.824 246.798C112.525 247.022 112.245 247.344 111.984 247.764V253H110.696V245.622H111.802L111.914 246.714C112.175 246.322 112.5 246.014 112.887 245.79C113.274 245.566 113.701 245.454 114.168 245.454ZM122.624 252.664C122.139 253 121.588 253.168 120.972 253.168C120.347 253.168 119.859 252.988 119.509 252.629C119.159 252.27 118.984 251.749 118.984 251.068V246.616H117.696V245.622H118.984V243.956L120.272 243.802V245.622H122.022L121.882 246.616H120.272V251.012C120.272 251.395 120.34 251.672 120.475 251.845C120.61 252.018 120.837 252.104 121.154 252.104C121.462 252.104 121.789 251.997 122.134 251.782L122.624 252.664Z" fill="#1A4A44"/>
<path id="View 5 comments" fill-rule="evenodd" clip-rule="evenodd" d="M26.192 201L23.084 191.354H24.512L26.934 199.558L29.356 191.354H30.7L27.62 201H26.192ZM32.114 201V193.622H33.402V201H32.114ZM32.744 190.08C33.0147 190.08 33.234 190.164 33.402 190.332C33.57 190.5 33.654 190.71 33.654 190.962C33.654 191.214 33.57 191.422 33.402 191.585C33.234 191.748 33.0147 191.83 32.744 191.83C32.4827 191.83 32.268 191.748 32.1 191.585C31.932 191.422 31.848 191.214 31.848 190.962C31.848 190.71 31.932 190.5 32.1 190.332C32.268 190.164 32.4827 190.08 32.744 190.08ZM41.634 197.094C41.634 197.309 41.6247 197.528 41.606 197.752H36.902C36.958 198.564 37.1633 199.161 37.518 199.544C37.8727 199.927 38.33 200.118 38.89 200.118C39.2447 200.118 39.5713 200.067 39.87 199.964C40.1687 199.861 40.4813 199.698 40.808 199.474L41.368 200.244C40.584 200.86 39.7253 201.168 38.792 201.168C37.7653 201.168 36.965 200.832 36.391 200.16C35.817 199.488 35.53 198.564 35.53 197.388C35.53 196.623 35.6537 195.944 35.901 195.351C36.1483 194.758 36.503 194.294 36.965 193.958C37.427 193.622 37.9707 193.454 38.596 193.454C39.576 193.454 40.3273 193.776 40.85 194.42C41.3727 195.064 41.634 195.955 41.634 197.094ZM40.36 196.716C40.36 195.988 40.2153 195.433 39.926 195.05C39.6367 194.667 39.2027 194.476 38.624 194.476C37.5693 194.476 36.9953 195.251 36.902 196.8H40.36V196.716ZM48.76 201L47.472 194.784L46.142 201H44.434L42.712 193.622H44L45.33 200.104L46.786 193.622H48.228L49.614 200.104L50.958 193.622H52.19L50.51 201H48.76ZM58.406 192.642V195.4C58.882 195.157 59.3813 195.036 59.904 195.036C60.7067 195.036 61.3507 195.3 61.836 195.827C62.3213 196.354 62.564 197.08 62.564 198.004C62.564 198.62 62.4287 199.168 62.158 199.649C61.8873 200.13 61.507 200.503 61.017 200.769C60.527 201.035 59.96 201.168 59.316 201.168C58.7467 201.168 58.238 201.068 57.79 200.867C57.342 200.666 56.9267 200.37 56.544 199.978L57.328 199.222C57.608 199.53 57.9067 199.756 58.224 199.901C58.5413 200.046 58.9007 200.118 59.302 200.118C59.8993 200.118 60.3683 199.931 60.709 199.558C61.0497 199.185 61.22 198.657 61.22 197.976C61.22 197.295 61.066 196.8 60.758 196.492C60.45 196.184 60.0347 196.03 59.512 196.03C59.2693 196.03 59.0453 196.056 58.84 196.107C58.6347 196.158 58.4153 196.24 58.182 196.352H57.174V191.634H62.242L62.06 192.642H58.406ZM70.922 193.454C71.3607 193.454 71.762 193.517 72.126 193.643C72.49 193.769 72.84 193.972 73.176 194.252L72.546 195.092C72.294 194.896 72.0467 194.751 71.804 194.658C71.5613 194.565 71.286 194.518 70.978 194.518C70.3807 194.518 69.9163 194.756 69.585 195.232C69.2537 195.708 69.088 196.413 69.088 197.346C69.088 198.279 69.2513 198.968 69.578 199.411C69.9047 199.854 70.3713 200.076 70.978 200.076C71.2767 200.076 71.545 200.029 71.783 199.936C72.021 199.843 72.28 199.689 72.56 199.474L73.176 200.356C72.504 200.897 71.7527 201.168 70.922 201.168C69.9233 201.168 69.137 200.832 68.563 200.16C67.989 199.488 67.702 198.559 67.702 197.374C67.702 196.59 67.8327 195.904 68.094 195.316C68.3553 194.728 68.7263 194.271 69.207 193.944C69.6877 193.617 70.2593 193.454 70.922 193.454ZM77.698 193.454C78.734 193.454 79.539 193.799 80.113 194.49C80.687 195.181 80.974 196.119 80.974 197.304C80.974 198.069 80.8433 198.744 80.582 199.327C80.3207 199.91 79.9427 200.363 79.448 200.685C78.9533 201.007 78.3653 201.168 77.684 201.168C76.648 201.168 75.8407 200.823 75.262 200.132C74.6833 199.441 74.394 198.503 74.394 197.318C74.394 196.553 74.5247 195.878 74.786 195.295C75.0473 194.712 75.4253 194.259 75.92 193.937C76.4147 193.615 77.0073 193.454 77.698 193.454ZM77.698 194.49C76.4193 194.49 75.78 195.433 75.78 197.318C75.78 199.194 76.4147 200.132 77.684 200.132C78.9533 200.132 79.588 199.189 79.588 197.304C79.588 195.428 78.958 194.49 77.698 194.49ZM90.508 193.454C91.1147 193.454 91.6 193.657 91.964 194.063C92.328 194.469 92.51 195.017 92.51 195.708V201H91.222V195.89C91.222 194.938 90.8767 194.462 90.186 194.462C89.822 194.462 89.514 194.567 89.262 194.777C89.01 194.987 88.7393 195.316 88.45 195.764V201H87.162V195.89C87.162 194.938 86.8167 194.462 86.126 194.462C85.7527 194.462 85.44 194.569 85.188 194.784C84.936 194.999 84.67 195.325 84.39 195.764V201H83.102V193.622H84.208L84.32 194.7C84.8707 193.869 85.58 193.454 86.448 193.454C86.9053 193.454 87.295 193.571 87.617 193.804C87.939 194.037 88.17 194.364 88.31 194.784C88.5993 194.355 88.919 194.026 89.269 193.797C89.619 193.568 90.032 193.454 90.508 193.454ZM102.506 193.454C103.113 193.454 103.598 193.657 103.962 194.063C104.326 194.469 104.508 195.017 104.508 195.708V201H103.22V195.89C103.22 194.938 102.875 194.462 102.184 194.462C101.82 194.462 101.512 194.567 101.26 194.777C101.008 194.987 100.737 195.316 100.448 195.764V201H99.16V195.89C99.16 194.938 98.8147 194.462 98.124 194.462C97.7507 194.462 97.438 194.569 97.186 194.784C96.934 194.999 96.668 195.325 96.388 195.764V201H95.1V193.622H96.206L96.318 194.7C96.8687 193.869 97.578 193.454 98.446 193.454C98.9033 193.454 99.293 193.571 99.615 193.804C99.937 194.037 100.168 194.364 100.308 194.784C100.597 194.355 100.917 194.026 101.267 193.797C101.617 193.568 102.03 193.454 102.506 193.454ZM112.67 197.094C112.67 197.309 112.661 197.528 112.642 197.752H107.938C107.994 198.564 108.199 199.161 108.554 199.544C108.909 199.927 109.366 200.118 109.926 200.118C110.281 200.118 110.607 200.067 110.906 199.964C111.205 199.861 111.517 199.698 111.844 199.474L112.404 200.244C111.62 200.86 110.761 201.168 109.828 201.168C108.801 201.168 108.001 200.832 107.427 200.16C106.853 199.488 106.566 198.564 106.566 197.388C106.566 196.623 106.69 195.944 106.937 195.351C107.184 194.758 107.539 194.294 108.001 193.958C108.463 193.622 109.007 193.454 109.632 193.454C110.612 193.454 111.363 193.776 111.886 194.42C112.409 195.064 112.67 195.955 112.67 197.094ZM111.396 196.716C111.396 195.988 111.251 195.433 110.962 195.05C110.673 194.667 110.239 194.476 109.66 194.476C108.605 194.476 108.031 195.251 107.938 196.8H111.396V196.716ZM118.27 193.454C118.942 193.454 119.467 193.655 119.845 194.056C120.223 194.457 120.412 195.008 120.412 195.708V201H119.124V195.89C119.124 195.367 119.026 194.999 118.83 194.784C118.634 194.569 118.345 194.462 117.962 194.462C117.57 194.462 117.225 194.574 116.926 194.798C116.627 195.022 116.347 195.344 116.086 195.764V201H114.798V193.622H115.904L116.016 194.714C116.277 194.322 116.602 194.014 116.989 193.79C117.376 193.566 117.803 193.454 118.27 193.454ZM126.726 200.664C126.241 201 125.69 201.168 125.074 201.168C124.449 201.168 123.961 200.988 123.611 200.629C123.261 200.27 123.086 199.749 123.086 199.068V194.616H121.798V193.622H123.086V191.956L124.374 191.802V193.622H126.124L125.984 194.616H124.374V199.012C124.374 199.395 124.442 199.672 124.577 199.845C124.712 200.018 124.939 200.104 125.256 200.104C125.564 200.104 125.891 199.997 126.236 199.782L126.726 200.664ZM130.058 193.454C130.562 193.454 131.015 193.524 131.416 193.664C131.817 193.804 132.2 194.014 132.564 194.294L132.004 195.148C131.677 194.915 131.362 194.744 131.059 194.637C130.756 194.53 130.436 194.476 130.1 194.476C129.68 194.476 129.349 194.562 129.106 194.735C128.863 194.908 128.742 195.143 128.742 195.442C128.742 195.741 128.856 195.974 129.085 196.142C129.314 196.31 129.727 196.473 130.324 196.632C131.145 196.837 131.759 197.117 132.165 197.472C132.571 197.827 132.774 198.312 132.774 198.928C132.774 199.656 132.492 200.211 131.927 200.594C131.362 200.977 130.674 201.168 129.862 201.168C128.742 201.168 127.813 200.846 127.076 200.202L127.79 199.39C128.369 199.885 129.05 200.132 129.834 200.132C130.31 200.132 130.693 200.034 130.982 199.838C131.271 199.642 131.416 199.381 131.416 199.054C131.416 198.793 131.365 198.58 131.262 198.417C131.159 198.254 130.984 198.114 130.737 197.997C130.49 197.88 130.119 197.757 129.624 197.626C128.84 197.421 128.273 197.143 127.923 196.793C127.573 196.443 127.398 196.002 127.398 195.47C127.398 195.087 127.512 194.742 127.741 194.434C127.97 194.126 128.287 193.886 128.693 193.713C129.099 193.54 129.554 193.454 130.058 193.454Z" fill="#1A4A44"/>
<path id="Patty Nguyen My apar" fill-rule="evenodd" clip-rule="evenodd" d="M27.046 134.298C28.3247 134.298 29.3187 134.564 30.028 135.096C30.7373 135.628 31.092 136.417 31.092 137.462C31.092 138.554 30.7443 139.378 30.049 139.933C29.3537 140.488 28.4227 140.766 27.256 140.766H26.206V144H23.91V134.298H27.046ZM27.06 139.114C27.6013 139.114 28.0143 138.986 28.299 138.729C28.5837 138.472 28.726 138.05 28.726 137.462C28.726 136.445 28.1567 135.936 27.018 135.936H26.206V139.114H27.06ZM38.176 141.844C38.176 142.124 38.2157 142.329 38.295 142.46C38.3743 142.591 38.5027 142.689 38.68 142.754L38.218 144.196C37.7607 144.159 37.3897 144.061 37.105 143.902C36.8203 143.743 36.594 143.487 36.426 143.132C35.9407 143.869 35.194 144.238 34.186 144.238C33.4487 144.238 32.8607 144.023 32.422 143.594C31.9833 143.165 31.764 142.605 31.764 141.914C31.764 141.102 32.0627 140.481 32.66 140.052C33.2573 139.623 34.1207 139.408 35.25 139.408H36.006V139.086C36.006 138.647 35.9127 138.346 35.726 138.183C35.5393 138.02 35.2127 137.938 34.746 137.938C34.5033 137.938 34.2093 137.973 33.864 138.043C33.5187 138.113 33.164 138.209 32.8 138.33L32.296 136.874C32.7627 136.697 33.241 136.561 33.731 136.468C34.221 136.375 34.676 136.328 35.096 136.328C36.16 136.328 36.9393 136.547 37.434 136.986C37.9287 137.425 38.176 138.083 38.176 138.96V141.844ZM34.83 142.656C35.0727 142.656 35.2943 142.595 35.495 142.474C35.6957 142.353 35.866 142.18 36.006 141.956V140.626H35.46C34.956 140.626 34.5803 140.715 34.333 140.892C34.0857 141.069 33.962 141.345 33.962 141.718C33.962 142.017 34.039 142.248 34.193 142.411C34.347 142.574 34.5593 142.656 34.83 142.656ZM44.602 143.65C44.3313 143.837 44.0163 143.981 43.657 144.084C43.2977 144.187 42.9407 144.238 42.586 144.238C40.962 144.229 40.15 143.333 40.15 141.55V138.106H39.1V136.566H40.15V134.956L42.362 134.704V136.566H44.07L43.832 138.106H42.362V141.522C42.362 141.867 42.418 142.115 42.53 142.264C42.642 142.413 42.8193 142.488 43.062 142.488C43.3233 142.488 43.5893 142.404 43.86 142.236L44.602 143.65ZM50.006 143.65C49.7353 143.837 49.4203 143.981 49.061 144.084C48.7017 144.187 48.3447 144.238 47.99 144.238C46.366 144.229 45.554 143.333 45.554 141.55V138.106H44.504V136.566H45.554V134.956L47.766 134.704V136.566H49.474L49.236 138.106H47.766V141.522C47.766 141.867 47.822 142.115 47.934 142.264C48.046 142.413 48.2233 142.488 48.466 142.488C48.7273 142.488 48.9933 142.404 49.264 142.236L50.006 143.65ZM54.85 144.014C54.5513 144.975 54.0637 145.715 53.387 146.233C52.7103 146.751 51.8027 147.043 50.664 147.108L50.426 145.554C51.1353 145.461 51.6603 145.302 52.001 145.078C52.3417 144.854 52.6147 144.495 52.82 144H52.064L49.796 136.566H52.148L53.478 142.586L54.934 136.566H57.216L54.85 144.014ZM65.91 144L63.11 136.482C63.2033 137.219 63.2757 137.87 63.327 138.435C63.3783 139 63.404 139.669 63.404 140.444V144H61.36V134.298H64.216L67.086 141.83C66.8807 140.551 66.778 139.347 66.778 138.218V134.298H68.836V144H65.91ZM77.446 137C76.9607 137.196 76.2467 137.294 75.304 137.294C75.7893 137.499 76.144 137.751 76.368 138.05C76.592 138.349 76.704 138.736 76.704 139.212C76.704 139.688 76.578 140.115 76.326 140.493C76.074 140.871 75.7123 141.167 75.241 141.382C74.7697 141.597 74.2167 141.704 73.582 141.704C73.2833 141.704 72.9987 141.676 72.728 141.62C72.6533 141.657 72.595 141.716 72.553 141.795C72.511 141.874 72.49 141.956 72.49 142.04C72.49 142.18 72.5437 142.29 72.651 142.369C72.7583 142.448 72.9753 142.488 73.302 142.488H74.422C74.9913 142.488 75.4907 142.581 75.92 142.768C76.3493 142.955 76.6807 143.211 76.914 143.538C77.1473 143.865 77.264 144.233 77.264 144.644C77.264 145.419 76.9303 146.023 76.263 146.457C75.5957 146.891 74.632 147.108 73.372 147.108C72.4667 147.108 71.7527 147.012 71.23 146.821C70.7073 146.63 70.341 146.361 70.131 146.016C69.921 145.671 69.816 145.237 69.816 144.714H71.804C71.804 144.938 71.8483 145.115 71.937 145.246C72.0257 145.377 72.1867 145.475 72.42 145.54C72.6533 145.605 72.9893 145.638 73.428 145.638C74.0347 145.638 74.4547 145.566 74.688 145.421C74.9213 145.276 75.038 145.069 75.038 144.798C75.038 144.574 74.9493 144.397 74.772 144.266C74.5947 144.135 74.3287 144.07 73.974 144.07H72.896C72.1307 144.07 71.559 143.932 71.181 143.657C70.803 143.382 70.614 143.029 70.614 142.6C70.614 142.329 70.6933 142.066 70.852 141.809C71.0107 141.552 71.2253 141.34 71.496 141.172C71.0293 140.92 70.691 140.624 70.481 140.283C70.271 139.942 70.166 139.529 70.166 139.044C70.166 138.213 70.4647 137.553 71.062 137.063C71.6593 136.573 72.448 136.328 73.428 136.328C74.1747 136.347 74.807 136.272 75.325 136.104C75.843 135.936 76.3773 135.689 76.928 135.362L77.446 137ZM73.484 137.784C73.1387 137.784 72.8657 137.894 72.665 138.113C72.4643 138.332 72.364 138.633 72.364 139.016C72.364 139.417 72.4643 139.728 72.665 139.947C72.8657 140.166 73.1387 140.276 73.484 140.276C73.848 140.276 74.1257 140.169 74.317 139.954C74.5083 139.739 74.604 139.417 74.604 138.988C74.604 138.185 74.2307 137.784 73.484 137.784ZM82.668 144L82.57 143.062C82.0287 143.846 81.2773 144.238 80.316 144.238C79.6347 144.238 79.119 144.033 78.769 143.622C78.419 143.211 78.244 142.637 78.244 141.9V136.566H80.456V141.62C80.456 141.984 80.5143 142.238 80.631 142.383C80.7477 142.528 80.9273 142.6 81.17 142.6C81.6367 142.6 82.038 142.311 82.374 141.732V136.566H84.586V144H82.668ZM90.424 144.014C90.1253 144.975 89.6377 145.715 88.961 146.233C88.2843 146.751 87.3767 147.043 86.238 147.108L86 145.554C86.7093 145.461 87.2343 145.302 87.575 145.078C87.9157 144.854 88.1887 144.495 88.394 144H87.638L85.37 136.566H87.722L89.052 142.586L90.508 136.566H92.79L90.424 144.014ZM100.056 140.136C100.056 140.444 100.042 140.71 100.014 140.934H95.422C95.4873 141.559 95.66 141.998 95.94 142.25C96.22 142.502 96.6073 142.628 97.102 142.628C97.4007 142.628 97.69 142.574 97.97 142.467C98.25 142.36 98.5533 142.194 98.88 141.97L99.79 143.202C98.922 143.893 97.956 144.238 96.892 144.238C95.688 144.238 94.764 143.883 94.12 143.174C93.476 142.465 93.154 141.513 93.154 140.318C93.154 139.562 93.2893 138.883 93.56 138.281C93.8307 137.679 94.2273 137.203 94.75 136.853C95.2727 136.503 95.898 136.328 96.626 136.328C97.6993 136.328 98.5393 136.664 99.146 137.336C99.7527 138.008 100.056 138.941 100.056 140.136ZM97.886 139.506C97.8673 138.367 97.466 137.798 96.682 137.798C96.2993 137.798 96.0053 137.936 95.8 138.211C95.5947 138.486 95.464 138.951 95.408 139.604H97.886V139.506ZM105.684 136.328C106.328 136.328 106.832 136.524 107.196 136.916C107.56 137.308 107.742 137.859 107.742 138.568V144H105.53V138.946C105.53 138.573 105.472 138.314 105.355 138.169C105.238 138.024 105.063 137.952 104.83 137.952C104.382 137.952 103.953 138.274 103.542 138.918V144H101.33V136.566H103.262L103.416 137.448C103.743 137.075 104.09 136.795 104.459 136.608C104.828 136.421 105.236 136.328 105.684 136.328ZM120.594 144L120.258 139.646C120.118 137.938 120.039 136.627 120.02 135.712L117.934 142.908H116.688L114.49 135.698C114.49 136.865 114.429 138.213 114.308 139.744L113.986 144H112.726L113.524 134.354H115.316L117.346 141.368L119.278 134.354H121.084L121.882 144H120.594ZM127.286 144.042C126.997 144.901 126.593 145.58 126.075 146.079C125.557 146.578 124.817 146.879 123.856 146.982L123.716 145.974C124.201 145.89 124.589 145.769 124.878 145.61C125.167 145.451 125.398 145.248 125.571 145.001C125.744 144.754 125.905 144.42 126.054 144H125.62L123.142 136.622H124.514L126.488 143.062L128.42 136.622H129.75L127.286 144.042ZM139.9 142.278C139.9 142.577 139.951 142.798 140.054 142.943C140.157 143.088 140.311 143.197 140.516 143.272L140.222 144.168C139.839 144.121 139.531 144.014 139.298 143.846C139.065 143.678 138.892 143.417 138.78 143.062C138.285 143.799 137.553 144.168 136.582 144.168C135.854 144.168 135.28 143.963 134.86 143.552C134.44 143.141 134.23 142.605 134.23 141.942C134.23 141.158 134.512 140.556 135.077 140.136C135.642 139.716 136.442 139.506 137.478 139.506H138.612V138.96C138.612 138.437 138.486 138.064 138.234 137.84C137.982 137.616 137.595 137.504 137.072 137.504C136.531 137.504 135.868 137.635 135.084 137.896L134.762 136.958C135.677 136.622 136.526 136.454 137.31 136.454C138.178 136.454 138.827 136.666 139.256 137.091C139.685 137.516 139.9 138.12 139.9 138.904V142.278ZM136.876 143.202C137.613 143.202 138.192 142.819 138.612 142.054V140.36H137.646C136.283 140.36 135.602 140.864 135.602 141.872C135.602 142.311 135.709 142.642 135.924 142.866C136.139 143.09 136.456 143.202 136.876 143.202ZM145.934 136.454C146.877 136.454 147.567 136.79 148.006 137.462C148.445 138.134 148.664 139.081 148.664 140.304C148.664 141.461 148.412 142.395 147.908 143.104C147.404 143.813 146.69 144.168 145.766 144.168C144.945 144.168 144.301 143.888 143.834 143.328V146.828L142.546 146.982V136.622H143.652L143.75 137.616C144.021 137.243 144.347 136.956 144.73 136.755C145.113 136.554 145.514 136.454 145.934 136.454ZM145.458 143.118C146.671 143.118 147.278 142.18 147.278 140.304C147.278 138.419 146.723 137.476 145.612 137.476C145.248 137.476 144.917 137.583 144.618 137.798C144.319 138.013 144.058 138.288 143.834 138.624V142.222C144.021 142.511 144.254 142.733 144.534 142.887C144.814 143.041 145.122 143.118 145.458 143.118ZM155.832 142.278C155.832 142.577 155.883 142.798 155.986 142.943C156.089 143.088 156.243 143.197 156.448 143.272L156.154 144.168C155.771 144.121 155.463 144.014 155.23 143.846C154.997 143.678 154.824 143.417 154.712 143.062C154.217 143.799 153.485 144.168 152.514 144.168C151.786 144.168 151.212 143.963 150.792 143.552C150.372 143.141 150.162 142.605 150.162 141.942C150.162 141.158 150.444 140.556 151.009 140.136C151.574 139.716 152.374 139.506 153.41 139.506H154.544V138.96C154.544 138.437 154.418 138.064 154.166 137.84C153.914 137.616 153.527 137.504 153.004 137.504C152.463 137.504 151.8 137.635 151.016 137.896L150.694 136.958C151.609 136.622 152.458 136.454 153.242 136.454C154.11 136.454 154.759 136.666 155.188 137.091C155.617 137.516 155.832 138.12 155.832 138.904V142.278ZM152.808 143.202C153.545 143.202 154.124 142.819 154.544 142.054V140.36H153.578C152.215 140.36 151.534 140.864 151.534 141.872C151.534 142.311 151.641 142.642 151.856 142.866C152.071 143.09 152.388 143.202 152.808 143.202ZM161.684 136.454C161.945 136.454 162.188 136.482 162.412 136.538L162.174 137.798C161.95 137.742 161.735 137.714 161.53 137.714C161.073 137.714 160.704 137.882 160.424 138.218C160.144 138.554 159.925 139.077 159.766 139.786V144H158.478V136.622H159.584L159.71 138.12C159.906 137.569 160.172 137.154 160.508 136.874C160.844 136.594 161.236 136.454 161.684 136.454ZM167.606 143.664C167.121 144 166.57 144.168 165.954 144.168C165.329 144.168 164.841 143.988 164.491 143.629C164.141 143.27 163.966 142.749 163.966 142.068V137.616H162.678V136.622H163.966V134.956L165.254 134.802V136.622H167.004L166.864 137.616H165.254V142.012C165.254 142.395 165.322 142.672 165.457 142.845C165.592 143.018 165.819 143.104 166.136 143.104C166.444 143.104 166.771 142.997 167.116 142.782L167.606 143.664ZM176.342 136.454C176.949 136.454 177.434 136.657 177.798 137.063C178.162 137.469 178.344 138.017 178.344 138.708V144H177.056V138.89C177.056 137.938 176.711 137.462 176.02 137.462C175.656 137.462 175.348 137.567 175.096 137.777C174.844 137.987 174.573 138.316 174.284 138.764V144H172.996V138.89C172.996 137.938 172.651 137.462 171.96 137.462C171.587 137.462 171.274 137.569 171.022 137.784C170.77 137.999 170.504 138.325 170.224 138.764V144H168.936V136.622H170.042L170.154 137.7C170.705 136.869 171.414 136.454 172.282 136.454C172.739 136.454 173.129 136.571 173.451 136.804C173.773 137.037 174.004 137.364 174.144 137.784C174.433 137.355 174.753 137.026 175.103 136.797C175.453 136.568 175.866 136.454 176.342 136.454ZM186.506 140.094C186.506 140.309 186.497 140.528 186.478 140.752H181.774C181.83 141.564 182.035 142.161 182.39 142.544C182.745 142.927 183.202 143.118 183.762 143.118C184.117 143.118 184.443 143.067 184.742 142.964C185.041 142.861 185.353 142.698 185.68 142.474L186.24 143.244C185.456 143.86 184.597 144.168 183.664 144.168C182.637 144.168 181.837 143.832 181.263 143.16C180.689 142.488 180.402 141.564 180.402 140.388C180.402 139.623 180.526 138.944 180.773 138.351C181.02 137.758 181.375 137.294 181.837 136.958C182.299 136.622 182.843 136.454 183.468 136.454C184.448 136.454 185.199 136.776 185.722 137.42C186.245 138.064 186.506 138.955 186.506 140.094ZM185.232 139.716C185.232 138.988 185.087 138.433 184.798 138.05C184.509 137.667 184.075 137.476 183.496 137.476C182.441 137.476 181.867 138.251 181.774 139.8H185.232V139.716ZM192.106 136.454C192.778 136.454 193.303 136.655 193.681 137.056C194.059 137.457 194.248 138.008 194.248 138.708V144H192.96V138.89C192.96 138.367 192.862 137.999 192.666 137.784C192.47 137.569 192.181 137.462 191.798 137.462C191.406 137.462 191.061 137.574 190.762 137.798C190.463 138.022 190.183 138.344 189.922 138.764V144H188.634V136.622H189.74L189.852 137.714C190.113 137.322 190.438 137.014 190.825 136.79C191.212 136.566 191.639 136.454 192.106 136.454ZM200.562 143.664C200.077 144 199.526 144.168 198.91 144.168C198.285 144.168 197.797 143.988 197.447 143.629C197.097 143.27 196.922 142.749 196.922 142.068V137.616H195.634V136.622H196.922V134.956L198.21 134.802V136.622H199.96L199.82 137.616H198.21V142.012C198.21 142.395 198.278 142.672 198.413 142.845C198.548 143.018 198.775 143.104 199.092 143.104C199.4 143.104 199.727 142.997 200.072 142.782L200.562 143.664ZM205.602 144V136.622H206.89V144H205.602ZM206.232 133.08C206.503 133.08 206.722 133.164 206.89 133.332C207.058 133.5 207.142 133.71 207.142 133.962C207.142 134.214 207.058 134.422 206.89 134.585C206.722 134.748 206.503 134.83 206.232 134.83C205.971 134.83 205.756 134.748 205.588 134.585C205.42 134.422 205.336 134.214 205.336 133.962C205.336 133.71 205.42 133.5 205.588 133.332C205.756 133.164 205.971 133.08 206.232 133.08ZM211.552 136.454C212.056 136.454 212.509 136.524 212.91 136.664C213.311 136.804 213.694 137.014 214.058 137.294L213.498 138.148C213.171 137.915 212.856 137.744 212.553 137.637C212.25 137.53 211.93 137.476 211.594 137.476C211.174 137.476 210.843 137.562 210.6 137.735C210.357 137.908 210.236 138.143 210.236 138.442C210.236 138.741 210.35 138.974 210.579 139.142C210.808 139.31 211.221 139.473 211.818 139.632C212.639 139.837 213.253 140.117 213.659 140.472C214.065 140.827 214.268 141.312 214.268 141.928C214.268 142.656 213.986 143.211 213.421 143.594C212.856 143.977 212.168 144.168 211.356 144.168C210.236 144.168 209.307 143.846 208.57 143.202L209.284 142.39C209.863 142.885 210.544 143.132 211.328 143.132C211.804 143.132 212.187 143.034 212.476 142.838C212.765 142.642 212.91 142.381 212.91 142.054C212.91 141.793 212.859 141.58 212.756 141.417C212.653 141.254 212.478 141.114 212.231 140.997C211.984 140.88 211.613 140.757 211.118 140.626C210.334 140.421 209.767 140.143 209.417 139.793C209.067 139.443 208.892 139.002 208.892 138.47C208.892 138.087 209.006 137.742 209.235 137.434C209.464 137.126 209.781 136.886 210.187 136.713C210.593 136.54 211.048 136.454 211.552 136.454ZM221.016 142.516C221.016 142.721 221.051 142.871 221.121 142.964C221.191 143.057 221.31 143.104 221.478 143.104C221.655 143.104 221.814 143.076 221.954 143.02L222.29 143.916C221.945 144.084 221.581 144.168 221.198 144.168C220.722 144.168 220.358 144.03 220.106 143.755C219.854 143.48 219.728 143.076 219.728 142.544V133.654L221.016 133.5V142.516ZM223.9 144V136.622H225.188V144H223.9ZM224.53 133.08C224.801 133.08 225.02 133.164 225.188 133.332C225.356 133.5 225.44 133.71 225.44 133.962C225.44 134.214 225.356 134.422 225.188 134.585C225.02 134.748 224.801 134.83 224.53 134.83C224.269 134.83 224.054 134.748 223.886 134.585C223.718 134.422 223.634 134.214 223.634 133.962C223.634 133.71 223.718 133.5 223.886 133.332C224.054 133.164 224.269 133.08 224.53 133.08ZM231.572 143.664C231.087 144 230.536 144.168 229.92 144.168C229.295 144.168 228.807 143.988 228.457 143.629C228.107 143.27 227.932 142.749 227.932 142.068V137.616H226.644V136.622H227.932V134.956L229.22 134.802V136.622H230.97L230.83 137.616H229.22V142.012C229.22 142.395 229.288 142.672 229.423 142.845C229.558 143.018 229.785 143.104 230.102 143.104C230.41 143.104 230.737 142.997 231.082 142.782L231.572 143.664ZM238.474 140.094C238.474 140.309 238.465 140.528 238.446 140.752H233.742C233.798 141.564 234.003 142.161 234.358 142.544C234.713 142.927 235.17 143.118 235.73 143.118C236.085 143.118 236.411 143.067 236.71 142.964C237.009 142.861 237.321 142.698 237.648 142.474L238.208 143.244C237.424 143.86 236.565 144.168 235.632 144.168C234.605 144.168 233.805 143.832 233.231 143.16C232.657 142.488 232.37 141.564 232.37 140.388C232.37 139.623 232.494 138.944 232.741 138.351C232.988 137.758 233.343 137.294 233.805 136.958C234.267 136.622 234.811 136.454 235.436 136.454C236.416 136.454 237.167 136.776 237.69 137.42C238.213 138.064 238.474 138.955 238.474 140.094ZM237.2 139.716C237.2 138.988 237.055 138.433 236.766 138.05C236.477 137.667 236.043 137.476 235.464 137.476C234.409 137.476 233.835 138.251 233.742 139.8H237.2V139.716ZM243.808 136.454C244.069 136.454 244.312 136.482 244.536 136.538L244.298 137.798C244.074 137.742 243.859 137.714 243.654 137.714C243.197 137.714 242.828 137.882 242.548 138.218C242.268 138.554 242.049 139.077 241.89 139.786V144H240.602V136.622H241.708L241.834 138.12C242.03 137.569 242.296 137.154 242.632 136.874C242.968 136.594 243.36 136.454 243.808 136.454ZM250.976 142.278C250.976 142.577 251.027 142.798 251.13 142.943C251.233 143.088 251.387 143.197 251.592 143.272L251.298 144.168C250.915 144.121 250.607 144.014 250.374 143.846C250.141 143.678 249.968 143.417 249.856 143.062C249.361 143.799 248.629 144.168 247.658 144.168C246.93 144.168 246.356 143.963 245.936 143.552C245.516 143.141 245.306 142.605 245.306 141.942C245.306 141.158 245.588 140.556 246.153 140.136C246.718 139.716 247.518 139.506 248.554 139.506H249.688V138.96C249.688 138.437 249.562 138.064 249.31 137.84C249.058 137.616 248.671 137.504 248.148 137.504C247.607 137.504 246.944 137.635 246.16 137.896L245.838 136.958C246.753 136.622 247.602 136.454 248.386 136.454C249.254 136.454 249.903 136.666 250.332 137.091C250.761 137.516 250.976 138.12 250.976 138.904V142.278ZM247.952 143.202C248.689 143.202 249.268 142.819 249.688 142.054V140.36H248.722C247.359 140.36 246.678 140.864 246.678 141.872C246.678 142.311 246.785 142.642 247 142.866C247.215 143.09 247.532 143.202 247.952 143.202ZM254.84 142.516C254.84 142.721 254.875 142.871 254.945 142.964C255.015 143.057 255.134 143.104 255.302 143.104C255.479 143.104 255.638 143.076 255.778 143.02L256.114 143.916C255.769 144.084 255.405 144.168 255.022 144.168C254.546 144.168 254.182 144.03 253.93 143.755C253.678 143.48 253.552 143.076 253.552 142.544V133.654L254.84 133.5V142.516ZM258.942 142.516C258.942 142.721 258.977 142.871 259.047 142.964C259.117 143.057 259.236 143.104 259.404 143.104C259.581 143.104 259.74 143.076 259.88 143.02L260.216 143.916C259.871 144.084 259.507 144.168 259.124 144.168C258.648 144.168 258.284 144.03 258.032 143.755C257.78 143.48 257.654 143.076 257.654 142.544V133.654L258.942 133.5V142.516ZM264.78 144.042C264.491 144.901 264.087 145.58 263.569 146.079C263.051 146.578 262.311 146.879 261.35 146.982L261.21 145.974C261.695 145.89 262.083 145.769 262.372 145.61C262.661 145.451 262.892 145.248 263.065 145.001C263.238 144.754 263.399 144.42 263.548 144H263.114L260.636 136.622H262.008L263.982 143.062L265.914 136.622H267.244L264.78 144.042ZM274.286 134.494C274.846 134.494 275.338 134.606 275.763 134.83C276.188 135.054 276.517 135.36 276.75 135.747C276.983 136.134 277.1 136.571 277.1 137.056C277.1 137.625 276.972 138.171 276.715 138.694C276.458 139.217 276.064 139.781 275.532 140.388C275 140.995 274.193 141.839 273.11 142.922H277.324L277.17 144H271.64V142.978C272.891 141.681 273.777 140.731 274.3 140.129C274.823 139.527 275.196 139.002 275.42 138.554C275.644 138.106 275.756 137.625 275.756 137.112C275.756 136.627 275.616 136.246 275.336 135.971C275.056 135.696 274.683 135.558 274.216 135.558C273.833 135.558 273.497 135.637 273.208 135.796C272.919 135.955 272.62 136.216 272.312 136.58L271.444 135.908C271.827 135.432 272.251 135.077 272.718 134.844C273.185 134.611 273.707 134.494 274.286 134.494ZM31.736 156.454C32.3427 156.454 32.828 156.657 33.192 157.063C33.556 157.469 33.738 158.017 33.738 158.708V164H32.45V158.89C32.45 157.938 32.1047 157.462 31.414 157.462C31.05 157.462 30.742 157.567 30.49 157.777C30.238 157.987 29.9673 158.316 29.678 158.764V164H28.39V158.89C28.39 157.938 28.0447 157.462 27.354 157.462C26.9807 157.462 26.668 157.569 26.416 157.784C26.164 157.999 25.898 158.325 25.618 158.764V164H24.33V156.622H25.436L25.548 157.7C26.0987 156.869 26.808 156.454 27.676 156.454C28.1333 156.454 28.523 156.571 28.845 156.804C29.167 157.037 29.398 157.364 29.538 157.784C29.8273 157.355 30.147 157.026 30.497 156.797C30.847 156.568 31.26 156.454 31.736 156.454ZM36.328 164V156.622H37.616V164H36.328ZM36.958 153.08C37.2287 153.08 37.448 153.164 37.616 153.332C37.784 153.5 37.868 153.71 37.868 153.962C37.868 154.214 37.784 154.422 37.616 154.585C37.448 154.748 37.2287 154.83 36.958 154.83C36.6967 154.83 36.482 154.748 36.314 154.585C36.146 154.422 36.062 154.214 36.062 153.962C36.062 153.71 36.146 153.5 36.314 153.332C36.482 153.164 36.6967 153.08 36.958 153.08ZM43.748 156.454C44.42 156.454 44.945 156.655 45.323 157.056C45.701 157.457 45.89 158.008 45.89 158.708V164H44.602V158.89C44.602 158.367 44.504 157.999 44.308 157.784C44.112 157.569 43.8227 157.462 43.44 157.462C43.048 157.462 42.7027 157.574 42.404 157.798C42.1053 158.022 41.8253 158.344 41.564 158.764V164H40.276V156.622H41.382L41.494 157.714C41.7553 157.322 42.0797 157.014 42.467 156.79C42.8543 156.566 43.2813 156.454 43.748 156.454ZM57.16 162.278C57.16 162.577 57.2113 162.798 57.314 162.943C57.4167 163.088 57.5707 163.197 57.776 163.272L57.482 164.168C57.0993 164.121 56.7913 164.014 56.558 163.846C56.3247 163.678 56.152 163.417 56.04 163.062C55.5453 163.799 54.8127 164.168 53.842 164.168C53.114 164.168 52.54 163.963 52.12 163.552C51.7 163.141 51.49 162.605 51.49 161.942C51.49 161.158 51.7723 160.556 52.337 160.136C52.9017 159.716 53.702 159.506 54.738 159.506H55.872V158.96C55.872 158.437 55.746 158.064 55.494 157.84C55.242 157.616 54.8547 157.504 54.332 157.504C53.7907 157.504 53.128 157.635 52.344 157.896L52.022 156.958C52.9367 156.622 53.786 156.454 54.57 156.454C55.438 156.454 56.0867 156.666 56.516 157.091C56.9453 157.516 57.16 158.12 57.16 158.904V162.278ZM54.136 163.202C54.8733 163.202 55.452 162.819 55.872 162.054V160.36H54.906C53.5433 160.36 52.862 160.864 52.862 161.872C52.862 162.311 52.9693 162.642 53.184 162.866C53.3987 163.09 53.716 163.202 54.136 163.202ZM64.804 164L63.516 157.784L62.186 164H60.478L58.756 156.622H60.044L61.374 163.104L62.83 156.622H64.272L65.658 163.104L67.002 156.622H68.234L66.554 164H64.804ZM74.814 162.278C74.814 162.577 74.8653 162.798 74.968 162.943C75.0707 163.088 75.2247 163.197 75.43 163.272L75.136 164.168C74.7533 164.121 74.4453 164.014 74.212 163.846C73.9787 163.678 73.806 163.417 73.694 163.062C73.1993 163.799 72.4667 164.168 71.496 164.168C70.768 164.168 70.194 163.963 69.774 163.552C69.354 163.141 69.144 162.605 69.144 161.942C69.144 161.158 69.4263 160.556 69.991 160.136C70.5557 159.716 71.356 159.506 72.392 159.506H73.526V158.96C73.526 158.437 73.4 158.064 73.148 157.84C72.896 157.616 72.5087 157.504 71.986 157.504C71.4447 157.504 70.782 157.635 69.998 157.896L69.676 156.958C70.5907 156.622 71.44 156.454 72.224 156.454C73.092 156.454 73.7407 156.666 74.17 157.091C74.5993 157.516 74.814 158.12 74.814 158.904V162.278ZM71.79 163.202C72.5273 163.202 73.106 162.819 73.526 162.054V160.36H72.56C71.1973 160.36 70.516 160.864 70.516 161.872C70.516 162.311 70.6233 162.642 70.838 162.866C71.0527 163.09 71.37 163.202 71.79 163.202ZM80.414 164.042C80.1247 164.901 79.721 165.58 79.203 166.079C78.685 166.578 77.9453 166.879 76.984 166.982L76.844 165.974C77.3293 165.89 77.7167 165.769 78.006 165.61C78.2953 165.451 78.5263 165.248 78.699 165.001C78.8717 164.754 79.0327 164.42 79.182 164H78.748L76.27 156.622H77.642L79.616 163.062L81.548 156.622H82.878L80.414 164.042ZM84.684 162.222C84.964 162.222 85.1973 162.315 85.384 162.502C85.5707 162.689 85.664 162.917 85.664 163.188C85.664 163.459 85.5707 163.69 85.384 163.881C85.1973 164.072 84.964 164.168 84.684 164.168C84.4133 164.168 84.1847 164.072 83.998 163.881C83.8113 163.69 83.718 163.459 83.718 163.188C83.718 162.917 83.8113 162.689 83.998 162.502C84.1847 162.315 84.4133 162.222 84.684 162.222ZM94.61 164H93.266V160.304L90.158 154.354H91.628L93.98 159.128L96.332 154.354H97.718L94.61 160.29V164ZM101.89 156.454C102.926 156.454 103.731 156.799 104.305 157.49C104.879 158.181 105.166 159.119 105.166 160.304C105.166 161.069 105.035 161.744 104.774 162.327C104.513 162.91 104.135 163.363 103.64 163.685C103.145 164.007 102.557 164.168 101.876 164.168C100.84 164.168 100.033 163.823 99.454 163.132C98.8753 162.441 98.586 161.503 98.586 160.318C98.586 159.553 98.7167 158.878 98.978 158.295C99.2393 157.712 99.6173 157.259 100.112 156.937C100.607 156.615 101.199 156.454 101.89 156.454ZM101.89 157.49C100.611 157.49 99.972 158.433 99.972 160.318C99.972 162.194 100.607 163.132 101.876 163.132C103.145 163.132 103.78 162.189 103.78 160.304C103.78 158.428 103.15 157.49 101.89 157.49ZM111.676 164L111.578 162.852C111.298 163.309 110.976 163.643 110.612 163.853C110.248 164.063 109.805 164.168 109.282 164.168C108.638 164.168 108.134 163.972 107.77 163.58C107.406 163.188 107.224 162.633 107.224 161.914V156.622H108.512V161.774C108.512 162.278 108.601 162.635 108.778 162.845C108.955 163.055 109.245 163.16 109.646 163.16C110.365 163.16 110.981 162.735 111.494 161.886V156.622H112.782V164H111.676ZM121.154 156.454C121.658 156.454 122.111 156.524 122.512 156.664C122.913 156.804 123.296 157.014 123.66 157.294L123.1 158.148C122.773 157.915 122.458 157.744 122.155 157.637C121.852 157.53 121.532 157.476 121.196 157.476C120.776 157.476 120.445 157.562 120.202 157.735C119.959 157.908 119.838 158.143 119.838 158.442C119.838 158.741 119.952 158.974 120.181 159.142C120.41 159.31 120.823 159.473 121.42 159.632C122.241 159.837 122.855 160.117 123.261 160.472C123.667 160.827 123.87 161.312 123.87 161.928C123.87 162.656 123.588 163.211 123.023 163.594C122.458 163.977 121.77 164.168 120.958 164.168C119.838 164.168 118.909 163.846 118.172 163.202L118.886 162.39C119.465 162.885 120.146 163.132 120.93 163.132C121.406 163.132 121.789 163.034 122.078 162.838C122.367 162.642 122.512 162.381 122.512 162.054C122.512 161.793 122.461 161.58 122.358 161.417C122.255 161.254 122.08 161.114 121.833 160.997C121.586 160.88 121.215 160.757 120.72 160.626C119.936 160.421 119.369 160.143 119.019 159.793C118.669 159.443 118.494 159.002 118.494 158.47C118.494 158.087 118.608 157.742 118.837 157.434C119.066 157.126 119.383 156.886 119.789 156.713C120.195 156.54 120.65 156.454 121.154 156.454ZM129.162 156.454C129.834 156.454 130.359 156.655 130.737 157.056C131.115 157.457 131.304 158.008 131.304 158.708V164H130.016V158.89C130.016 158.367 129.916 157.999 129.715 157.784C129.514 157.569 129.223 157.462 128.84 157.462C128.457 157.462 128.117 157.574 127.818 157.798C127.519 158.022 127.239 158.339 126.978 158.75V164H125.69V153.668L126.978 153.528V157.644C127.557 156.851 128.285 156.454 129.162 156.454ZM136.666 156.454C137.702 156.454 138.507 156.799 139.081 157.49C139.655 158.181 139.942 159.119 139.942 160.304C139.942 161.069 139.811 161.744 139.55 162.327C139.289 162.91 138.911 163.363 138.416 163.685C137.921 164.007 137.333 164.168 136.652 164.168C135.616 164.168 134.809 163.823 134.23 163.132C133.651 162.441 133.362 161.503 133.362 160.318C133.362 159.553 133.493 158.878 133.754 158.295C134.015 157.712 134.393 157.259 134.888 156.937C135.383 156.615 135.975 156.454 136.666 156.454ZM136.666 157.49C135.387 157.49 134.748 158.433 134.748 160.318C134.748 162.194 135.383 163.132 136.652 163.132C137.921 163.132 138.556 162.189 138.556 160.304C138.556 158.428 137.926 157.49 136.666 157.49ZM146.452 164L146.354 162.852C146.074 163.309 145.752 163.643 145.388 163.853C145.024 164.063 144.581 164.168 144.058 164.168C143.414 164.168 142.91 163.972 142.546 163.58C142.182 163.188 142 162.633 142 161.914V156.622H143.288V161.774C143.288 162.278 143.377 162.635 143.554 162.845C143.731 163.055 144.021 163.16 144.422 163.16C145.141 163.16 145.757 162.735 146.27 161.886V156.622H147.558V164H146.452ZM151.436 162.516C151.436 162.721 151.471 162.871 151.541 162.964C151.611 163.057 151.73 163.104 151.898 163.104C152.075 163.104 152.234 163.076 152.374 163.02L152.71 163.916C152.365 164.084 152.001 164.168 151.618 164.168C151.142 164.168 150.778 164.03 150.526 163.755C150.274 163.48 150.148 163.076 150.148 162.544V153.654L151.436 153.5V162.516ZM160.032 164H158.898L158.772 162.978C158.529 163.351 158.226 163.643 157.862 163.853C157.498 164.063 157.092 164.168 156.644 164.168C155.767 164.168 155.083 163.823 154.593 163.132C154.103 162.441 153.858 161.513 153.858 160.346C153.858 159.59 153.975 158.918 154.208 158.33C154.441 157.742 154.777 157.282 155.216 156.951C155.655 156.62 156.168 156.454 156.756 156.454C157.512 156.454 158.175 156.757 158.744 157.364V153.5L160.032 153.654V164ZM156.924 163.146C157.316 163.146 157.652 163.055 157.932 162.873C158.212 162.691 158.483 162.418 158.744 162.054V158.442C158.501 158.125 158.242 157.884 157.967 157.721C157.692 157.558 157.381 157.476 157.036 157.476C156.467 157.476 156.026 157.714 155.713 158.19C155.4 158.666 155.244 159.375 155.244 160.318C155.244 161.27 155.389 161.979 155.678 162.446C155.967 162.913 156.383 163.146 156.924 163.146ZM168.404 156.454C168.908 156.454 169.361 156.524 169.762 156.664C170.163 156.804 170.546 157.014 170.91 157.294L170.35 158.148C170.023 157.915 169.708 157.744 169.405 157.637C169.102 157.53 168.782 157.476 168.446 157.476C168.026 157.476 167.695 157.562 167.452 157.735C167.209 157.908 167.088 158.143 167.088 158.442C167.088 158.741 167.202 158.974 167.431 159.142C167.66 159.31 168.073 159.473 168.67 159.632C169.491 159.837 170.105 160.117 170.511 160.472C170.917 160.827 171.12 161.312 171.12 161.928C171.12 162.656 170.838 163.211 170.273 163.594C169.708 163.977 169.02 164.168 168.208 164.168C167.088 164.168 166.159 163.846 165.422 163.202L166.136 162.39C166.715 162.885 167.396 163.132 168.18 163.132C168.656 163.132 169.039 163.034 169.328 162.838C169.617 162.642 169.762 162.381 169.762 162.054C169.762 161.793 169.711 161.58 169.608 161.417C169.505 161.254 169.33 161.114 169.083 160.997C168.836 160.88 168.465 160.757 167.97 160.626C167.186 160.421 166.619 160.143 166.269 159.793C165.919 159.443 165.744 159.002 165.744 158.47C165.744 158.087 165.858 157.742 166.087 157.434C166.316 157.126 166.633 156.886 167.039 156.713C167.445 156.54 167.9 156.454 168.404 156.454ZM176.664 163.664C176.179 164 175.628 164.168 175.012 164.168C174.387 164.168 173.899 163.988 173.549 163.629C173.199 163.27 173.024 162.749 173.024 162.068V157.616H171.736V156.622H173.024V154.956L174.312 154.802V156.622H176.062L175.922 157.616H174.312V162.012C174.312 162.395 174.38 162.672 174.515 162.845C174.65 163.018 174.877 163.104 175.194 163.104C175.502 163.104 175.829 162.997 176.174 162.782L176.664 163.664ZM180.766 156.454C181.802 156.454 182.607 156.799 183.181 157.49C183.755 158.181 184.042 159.119 184.042 160.304C184.042 161.069 183.911 161.744 183.65 162.327C183.389 162.91 183.011 163.363 182.516 163.685C182.021 164.007 181.433 164.168 180.752 164.168C179.716 164.168 178.909 163.823 178.33 163.132C177.751 162.441 177.462 161.503 177.462 160.318C177.462 159.553 177.593 158.878 177.854 158.295C178.115 157.712 178.493 157.259 178.988 156.937C179.483 156.615 180.075 156.454 180.766 156.454ZM180.766 157.49C179.487 157.49 178.848 158.433 178.848 160.318C178.848 162.194 179.483 163.132 180.752 163.132C182.021 163.132 182.656 162.189 182.656 160.304C182.656 158.428 182.026 157.49 180.766 157.49ZM189.558 156.454C190.501 156.454 191.191 156.79 191.63 157.462C192.069 158.134 192.288 159.081 192.288 160.304C192.288 161.461 192.036 162.395 191.532 163.104C191.028 163.813 190.314 164.168 189.39 164.168C188.569 164.168 187.925 163.888 187.458 163.328V166.828L186.17 166.982V156.622H187.276L187.374 157.616C187.645 157.243 187.971 156.956 188.354 156.755C188.737 156.554 189.138 156.454 189.558 156.454ZM189.082 163.118C190.295 163.118 190.902 162.18 190.902 160.304C190.902 158.419 190.347 157.476 189.236 157.476C188.872 157.476 188.541 157.583 188.242 157.798C187.943 158.013 187.682 158.288 187.458 158.624V162.222C187.645 162.511 187.878 162.733 188.158 162.887C188.438 163.041 188.746 163.118 189.082 163.118ZM201.57 156.454C202.41 156.454 203.077 156.792 203.572 157.469C204.067 158.146 204.314 159.091 204.314 160.304C204.314 161.069 204.197 161.744 203.964 162.327C203.731 162.91 203.395 163.363 202.956 163.685C202.517 164.007 202.004 164.168 201.416 164.168C200.641 164.168 199.988 163.841 199.456 163.188L199.33 164H198.196V153.654L199.484 153.5V157.546C200.016 156.818 200.711 156.454 201.57 156.454ZM201.108 163.146C201.677 163.146 202.123 162.915 202.445 162.453C202.767 161.991 202.928 161.275 202.928 160.304C202.928 159.305 202.779 158.584 202.48 158.141C202.181 157.698 201.757 157.476 201.206 157.476C200.553 157.476 199.979 157.859 199.484 158.624V162.152C199.68 162.46 199.92 162.703 200.205 162.88C200.49 163.057 200.791 163.146 201.108 163.146ZM209.466 164.042C209.177 164.901 208.773 165.58 208.255 166.079C207.737 166.578 206.997 166.879 206.036 166.982L205.896 165.974C206.381 165.89 206.769 165.769 207.058 165.61C207.347 165.451 207.578 165.248 207.751 165.001C207.924 164.754 208.085 164.42 208.234 164H207.8L205.322 156.622H206.694L208.668 163.062L210.6 156.622H211.93L209.466 164.042ZM213.176 160.78L213.022 154.354H214.45L214.31 160.78H213.176ZM213.75 162.222C214.03 162.222 214.263 162.315 214.45 162.502C214.637 162.689 214.73 162.917 214.73 163.188C214.73 163.459 214.637 163.69 214.45 163.881C214.263 164.072 214.03 164.168 213.75 164.168C213.479 164.168 213.251 164.072 213.064 163.881C212.877 163.69 212.784 163.459 212.784 163.188C212.784 162.917 212.877 162.689 213.064 162.502C213.251 162.315 213.479 162.222 213.75 162.222Z" fill="#1A4A44"/>
<path id="base" d="M189.071 100.643C193.091 100.643 196.358 103.933 196.358 108C196.358 112.067 193.091 115.357 189.071 115.357C185.05 115.357 181.783 112.067 181.783 108C181.783 103.933 185.05 100.643 189.071 100.643Z" fill="url(#paint0_linear)" stroke="url(#paint1_linear)"/>
<path id="left eye" fill-rule="evenodd" clip-rule="evenodd" d="M187.32 107.698C187.246 107.564 187.027 106.826 186.453 106.826C185.879 106.826 185.661 107.564 185.587 107.698C185.514 107.832 185.246 107.967 185.246 107.698C185.246 105.523 186.077 105.286 186.453 105.286C186.83 105.286 187.653 105.523 187.653 107.704C187.653 107.973 187.393 107.832 187.32 107.698Z" fill="#730000"/>
<path id="right eye" fill-rule="evenodd" clip-rule="evenodd" d="M192.417 107.698C192.343 107.564 192.125 106.826 191.551 106.826C190.977 106.826 190.759 107.564 190.685 107.698C190.611 107.832 190.343 107.967 190.343 107.698C190.343 105.523 191.175 105.286 191.551 105.286C191.927 105.286 192.75 105.523 192.75 107.704C192.75 107.973 192.491 107.832 192.417 107.698Z" fill="#730000"/>
<path id="mouth" fill-rule="evenodd" clip-rule="evenodd" d="M189 113.143C185.407 113.143 183.973 110.204 183.973 109.29C183.973 108.811 184.343 108.801 184.392 109.004C184.442 109.207 185.549 112.857 189 112.857C189 112.857 189 112.856 189 112.856C192.451 112.856 193.558 109.187 193.608 108.983C193.657 108.779 194.027 108.788 194.027 109.27C194.027 110.189 192.593 113.143 189 113.143Z" fill="#730000"/>
<path id="tongue" fill-rule="evenodd" clip-rule="evenodd" d="M194.197 109.911C194.197 109.911 194.771 110.316 195.12 110.562C195.469 110.808 196.116 111.602 195.465 112.537C194.815 113.472 193.853 113.131 193.504 112.885C193.155 112.639 192.581 112.234 192.581 112.234C192.581 112.234 192.043 111.855 192.15 111.7C192.258 111.545 192.565 111.268 192.927 110.748C193.289 110.227 193.443 109.841 193.551 109.687C193.658 109.532 194.197 109.911 194.197 109.911Z" fill="url(#paint2_linear)" stroke="#D62E7F"/>
<path id="base_2" d="M208.071 100.643C212.091 100.643 215.358 103.933 215.358 108C215.358 112.067 212.091 115.357 208.071 115.357C204.05 115.357 200.783 112.067 200.783 108C200.783 103.933 204.05 100.643 208.071 100.643Z" fill="url(#paint3_linear)" stroke="url(#paint4_linear)"/>
<path id="left eye_2" fill-rule="evenodd" clip-rule="evenodd" d="M206.32 107.698C206.246 107.564 206.027 106.826 205.453 106.826C204.879 106.826 204.661 107.564 204.587 107.698C204.514 107.832 204.246 107.967 204.246 107.698C204.246 105.523 205.077 105.286 205.453 105.286C205.83 105.286 206.653 105.523 206.653 107.704C206.653 107.973 206.393 107.832 206.32 107.698Z" fill="#730000"/>
<path id="right eye_2" fill-rule="evenodd" clip-rule="evenodd" d="M211.417 107.698C211.343 107.564 211.125 106.826 210.551 106.826C209.977 106.826 209.759 107.564 209.685 107.698C209.611 107.832 209.343 107.967 209.343 107.698C209.343 105.523 210.175 105.286 210.551 105.286C210.927 105.286 211.75 105.523 211.75 107.704C211.75 107.973 211.491 107.832 211.417 107.698Z" fill="#730000"/>
<path id="mouth_2" fill-rule="evenodd" clip-rule="evenodd" d="M208 113.143C204.407 113.143 202.973 110.204 202.973 109.29C202.973 108.811 203.343 108.801 203.392 109.004C203.442 109.207 204.549 112.857 208 112.857C208 112.857 208 112.856 208 112.856C211.451 112.856 212.558 109.187 212.608 108.983C212.657 108.779 213.027 108.788 213.027 109.27C213.027 110.189 211.593 113.143 208 113.143Z" fill="#730000"/>
<path id="tongue_2" fill-rule="evenodd" clip-rule="evenodd" d="M213.197 109.911C213.197 109.911 213.771 110.316 214.12 110.562C214.469 110.808 215.116 111.602 214.465 112.537C213.815 113.472 212.853 113.131 212.504 112.885C212.155 112.639 211.581 112.234 211.581 112.234C211.581 112.234 211.043 111.855 211.15 111.7C211.258 111.545 211.565 111.268 211.927 110.748C212.289 110.227 212.443 109.841 212.551 109.687C212.658 109.532 213.197 109.911 213.197 109.911Z" fill="url(#paint5_linear)" stroke="#D62E7F"/>
<path id="base_3" d="M227.071 100.643C231.091 100.643 234.358 103.933 234.358 108C234.358 112.067 231.091 115.357 227.071 115.357C223.05 115.357 219.783 112.067 219.783 108C219.783 103.933 223.05 100.643 227.071 100.643Z" fill="url(#paint6_linear)" stroke="url(#paint7_linear)"/>
<path id="left eye_3" fill-rule="evenodd" clip-rule="evenodd" d="M225.32 107.698C225.246 107.564 225.027 106.826 224.453 106.826C223.879 106.826 223.661 107.564 223.587 107.698C223.514 107.832 223.246 107.967 223.246 107.698C223.246 105.523 224.077 105.286 224.453 105.286C224.83 105.286 225.653 105.523 225.653 107.704C225.653 107.973 225.393 107.832 225.32 107.698Z" fill="#730000"/>
<path id="right eye_3" fill-rule="evenodd" clip-rule="evenodd" d="M230.417 107.698C230.343 107.564 230.125 106.826 229.551 106.826C228.977 106.826 228.759 107.564 228.685 107.698C228.611 107.832 228.343 107.967 228.343 107.698C228.343 105.523 229.175 105.286 229.551 105.286C229.927 105.286 230.75 105.523 230.75 107.704C230.75 107.973 230.491 107.832 230.417 107.698Z" fill="#730000"/>
<path id="mouth_3" fill-rule="evenodd" clip-rule="evenodd" d="M227 113.143C223.407 113.143 221.973 110.204 221.973 109.29C221.973 108.811 222.343 108.801 222.392 109.004C222.442 109.207 223.549 112.857 227 112.857C227 112.857 227 112.856 227 112.856C230.451 112.856 231.558 109.187 231.608 108.983C231.657 108.779 232.027 108.788 232.027 109.27C232.027 110.189 230.593 113.143 227 113.143Z" fill="#730000"/>
<path id="tongue_3" fill-rule="evenodd" clip-rule="evenodd" d="M232.197 109.911C232.197 109.911 232.771 110.316 233.12 110.562C233.469 110.808 234.116 111.602 233.465 112.537C232.815 113.472 231.853 113.131 231.504 112.885C231.155 112.639 230.581 112.234 230.581 112.234C230.581 112.234 230.043 111.855 230.15 111.7C230.258 111.545 230.565 111.268 230.927 110.748C231.289 110.227 231.443 109.841 231.551 109.687C231.658 109.532 232.197 109.911 232.197 109.911Z" fill="url(#paint8_linear)" stroke="#D62E7F"/>
<path id="Fiona Dawson Flatbre" fill-rule="evenodd" clip-rule="evenodd" d="M26.206 105.936V108.512H29.034V110.15H26.206V114H23.91V104.298H29.692L29.454 105.936H26.206ZM30.686 114V106.566H32.898V114H30.686ZM31.778 102.646C32.1607 102.646 32.4757 102.765 32.723 103.003C32.9703 103.241 33.094 103.542 33.094 103.906C33.094 104.27 32.9703 104.571 32.723 104.809C32.4757 105.047 32.1607 105.166 31.778 105.166C31.3953 105.166 31.0827 105.047 30.84 104.809C30.5973 104.571 30.476 104.27 30.476 103.906C30.476 103.542 30.5973 103.241 30.84 103.003C31.0827 102.765 31.3953 102.646 31.778 102.646ZM37.854 106.328C38.9927 106.328 39.884 106.676 40.528 107.371C41.172 108.066 41.494 109.039 41.494 110.29C41.494 111.083 41.347 111.776 41.053 112.369C40.759 112.962 40.339 113.421 39.793 113.748C39.247 114.075 38.6007 114.238 37.854 114.238C36.7247 114.238 35.8357 113.89 35.187 113.195C34.5383 112.5 34.214 111.527 34.214 110.276C34.214 109.483 34.361 108.79 34.655 108.197C34.949 107.604 35.369 107.145 35.915 106.818C36.461 106.491 37.1073 106.328 37.854 106.328ZM37.854 107.952C37.406 107.952 37.07 108.141 36.846 108.519C36.622 108.897 36.51 109.483 36.51 110.276C36.51 111.088 36.6197 111.681 36.839 112.054C37.0583 112.427 37.3967 112.614 37.854 112.614C38.302 112.614 38.638 112.425 38.862 112.047C39.086 111.669 39.198 111.083 39.198 110.29C39.198 109.478 39.0883 108.885 38.869 108.512C38.6497 108.139 38.3113 107.952 37.854 107.952ZM47.164 106.328C47.808 106.328 48.312 106.524 48.676 106.916C49.04 107.308 49.222 107.859 49.222 108.568V114H47.01V108.946C47.01 108.573 46.9517 108.314 46.835 108.169C46.7183 108.024 46.5433 107.952 46.31 107.952C45.862 107.952 45.4327 108.274 45.022 108.918V114H42.81V106.566H44.742L44.896 107.448C45.2227 107.075 45.5703 106.795 45.939 106.608C46.3077 106.421 46.716 106.328 47.164 106.328ZM56.796 111.844C56.796 112.124 56.8357 112.329 56.915 112.46C56.9943 112.591 57.1227 112.689 57.3 112.754L56.838 114.196C56.3807 114.159 56.0097 114.061 55.725 113.902C55.4403 113.743 55.214 113.487 55.046 113.132C54.5607 113.869 53.814 114.238 52.806 114.238C52.0687 114.238 51.4807 114.023 51.042 113.594C50.6033 113.165 50.384 112.605 50.384 111.914C50.384 111.102 50.6827 110.481 51.28 110.052C51.8773 109.623 52.7407 109.408 53.87 109.408H54.626V109.086C54.626 108.647 54.5327 108.346 54.346 108.183C54.1593 108.02 53.8327 107.938 53.366 107.938C53.1233 107.938 52.8293 107.973 52.484 108.043C52.1387 108.113 51.784 108.209 51.42 108.33L50.916 106.874C51.3827 106.697 51.861 106.561 52.351 106.468C52.841 106.375 53.296 106.328 53.716 106.328C54.78 106.328 55.5593 106.547 56.054 106.986C56.5487 107.425 56.796 108.083 56.796 108.96V111.844ZM53.45 112.656C53.6927 112.656 53.9143 112.595 54.115 112.474C54.3157 112.353 54.486 112.18 54.626 111.956V110.626H54.08C53.576 110.626 53.2003 110.715 52.953 110.892C52.7057 111.069 52.582 111.345 52.582 111.718C52.582 112.017 52.659 112.248 52.813 112.411C52.967 112.574 53.1793 112.656 53.45 112.656ZM64.622 104.298C66.1433 104.298 67.3637 104.641 68.283 105.327C69.2023 106.013 69.662 107.271 69.662 109.1C69.662 110.901 69.214 112.168 68.318 112.901C67.422 113.634 66.26 114 64.832 114H61.92V104.298H64.622ZM64.216 112.334H64.972C65.728 112.334 66.302 112.098 66.694 111.627C67.086 111.156 67.282 110.313 67.282 109.1C67.282 108.269 67.184 107.625 66.988 107.168C66.792 106.711 66.526 106.396 66.19 106.223C65.854 106.05 65.4387 105.964 64.944 105.964H64.216V112.334ZM76.9 111.844C76.9 112.124 76.9397 112.329 77.019 112.46C77.0983 112.591 77.2267 112.689 77.404 112.754L76.942 114.196C76.4847 114.159 76.1137 114.061 75.829 113.902C75.5443 113.743 75.318 113.487 75.15 113.132C74.6647 113.869 73.918 114.238 72.91 114.238C72.1727 114.238 71.5847 114.023 71.146 113.594C70.7073 113.165 70.488 112.605 70.488 111.914C70.488 111.102 70.7867 110.481 71.384 110.052C71.9813 109.623 72.8447 109.408 73.974 109.408H74.73V109.086C74.73 108.647 74.6367 108.346 74.45 108.183C74.2633 108.02 73.9367 107.938 73.47 107.938C73.2273 107.938 72.9333 107.973 72.588 108.043C72.2427 108.113 71.888 108.209 71.524 108.33L71.02 106.874C71.4867 106.697 71.965 106.561 72.455 106.468C72.945 106.375 73.4 106.328 73.82 106.328C74.884 106.328 75.6633 106.547 76.158 106.986C76.6527 107.425 76.9 108.083 76.9 108.96V111.844ZM73.554 112.656C73.7967 112.656 74.0183 112.595 74.219 112.474C74.4197 112.353 74.59 112.18 74.73 111.956V110.626H74.184C73.68 110.626 73.3043 110.715 73.057 110.892C72.8097 111.069 72.686 111.345 72.686 111.718C72.686 112.017 72.763 112.248 72.917 112.411C73.071 112.574 73.2833 112.656 73.554 112.656ZM84.026 114L83.032 108.54L82.052 114H79.434L77.852 106.566H80.092L80.862 112.348L82.024 106.566H84.18L85.202 112.348L86.098 106.566H88.212L86.672 114H84.026ZM91.768 106.328C92.3 106.328 92.7993 106.407 93.266 106.566C93.7327 106.725 94.1433 106.949 94.498 107.238L93.686 108.498C93.0887 108.106 92.5007 107.91 91.922 107.91C91.5953 107.91 91.3527 107.959 91.194 108.057C91.0353 108.155 90.956 108.293 90.956 108.47C90.956 108.61 90.991 108.724 91.061 108.813C91.131 108.902 91.2733 108.993 91.488 109.086C91.7027 109.179 92.034 109.291 92.482 109.422C93.2567 109.646 93.833 109.938 94.211 110.297C94.589 110.656 94.778 111.153 94.778 111.788C94.778 112.292 94.6333 112.728 94.344 113.097C94.0547 113.466 93.658 113.748 93.154 113.944C92.65 114.14 92.09 114.238 91.474 114.238C90.8487 114.238 90.2677 114.14 89.731 113.944C89.1943 113.748 88.7393 113.477 88.366 113.132L89.458 111.914C89.738 112.147 90.046 112.329 90.382 112.46C90.718 112.591 91.0587 112.656 91.404 112.656C91.7493 112.656 92.0177 112.595 92.209 112.474C92.4003 112.353 92.496 112.185 92.496 111.97C92.496 111.793 92.4587 111.65 92.384 111.543C92.3093 111.436 92.1647 111.338 91.95 111.249C91.7353 111.16 91.3947 111.051 90.928 110.92C90.1907 110.705 89.64 110.407 89.276 110.024C88.912 109.641 88.73 109.165 88.73 108.596C88.73 108.167 88.8537 107.782 89.101 107.441C89.3483 107.1 89.703 106.83 90.165 106.629C90.627 106.428 91.1613 106.328 91.768 106.328ZM99.132 106.328C100.271 106.328 101.162 106.676 101.806 107.371C102.45 108.066 102.772 109.039 102.772 110.29C102.772 111.083 102.625 111.776 102.331 112.369C102.037 112.962 101.617 113.421 101.071 113.748C100.525 114.075 99.8787 114.238 99.132 114.238C98.0027 114.238 97.1137 113.89 96.465 113.195C95.8163 112.5 95.492 111.527 95.492 110.276C95.492 109.483 95.639 108.79 95.933 108.197C96.227 107.604 96.647 107.145 97.193 106.818C97.739 106.491 98.3853 106.328 99.132 106.328ZM99.132 107.952C98.684 107.952 98.348 108.141 98.124 108.519C97.9 108.897 97.788 109.483 97.788 110.276C97.788 111.088 97.8977 111.681 98.117 112.054C98.3363 112.427 98.6747 112.614 99.132 112.614C99.58 112.614 99.916 112.425 100.14 112.047C100.364 111.669 100.476 111.083 100.476 110.29C100.476 109.478 100.366 108.885 100.147 108.512C99.9277 108.139 99.5893 107.952 99.132 107.952ZM108.442 106.328C109.086 106.328 109.59 106.524 109.954 106.916C110.318 107.308 110.5 107.859 110.5 108.568V114H108.288V108.946C108.288 108.573 108.23 108.314 108.113 108.169C107.996 108.024 107.821 107.952 107.588 107.952C107.14 107.952 106.711 108.274 106.3 108.918V114H104.088V106.566H106.02L106.174 107.448C106.501 107.075 106.848 106.795 107.217 106.608C107.586 106.421 107.994 106.328 108.442 106.328ZM117.346 105.418V108.708H120.496V109.758H117.346V114H116.016V104.354H121.14L120.986 105.418H117.346ZM124.038 112.516C124.038 112.721 124.073 112.871 124.143 112.964C124.213 113.057 124.332 113.104 124.5 113.104C124.677 113.104 124.836 113.076 124.976 113.02L125.312 113.916C124.967 114.084 124.603 114.168 124.22 114.168C123.744 114.168 123.38 114.03 123.128 113.755C122.876 113.48 122.75 113.076 122.75 112.544V103.654L124.038 103.5V112.516ZM131.892 112.278C131.892 112.577 131.943 112.798 132.046 112.943C132.149 113.088 132.303 113.197 132.508 113.272L132.214 114.168C131.831 114.121 131.523 114.014 131.29 113.846C131.057 113.678 130.884 113.417 130.772 113.062C130.277 113.799 129.545 114.168 128.574 114.168C127.846 114.168 127.272 113.963 126.852 113.552C126.432 113.141 126.222 112.605 126.222 111.942C126.222 111.158 126.504 110.556 127.069 110.136C127.634 109.716 128.434 109.506 129.47 109.506H130.604V108.96C130.604 108.437 130.478 108.064 130.226 107.84C129.974 107.616 129.587 107.504 129.064 107.504C128.523 107.504 127.86 107.635 127.076 107.896L126.754 106.958C127.669 106.622 128.518 106.454 129.302 106.454C130.17 106.454 130.819 106.666 131.248 107.091C131.677 107.516 131.892 108.12 131.892 108.904V112.278ZM128.868 113.202C129.605 113.202 130.184 112.819 130.604 112.054V110.36H129.638C128.275 110.36 127.594 110.864 127.594 111.872C127.594 112.311 127.701 112.642 127.916 112.866C128.131 113.09 128.448 113.202 128.868 113.202ZM138.262 113.664C137.777 114 137.226 114.168 136.61 114.168C135.985 114.168 135.497 113.988 135.147 113.629C134.797 113.27 134.622 112.749 134.622 112.068V107.616H133.334V106.622H134.622V104.956L135.91 104.802V106.622H137.66L137.52 107.616H135.91V112.012C135.91 112.395 135.978 112.672 136.113 112.845C136.248 113.018 136.475 113.104 136.792 113.104C137.1 113.104 137.427 112.997 137.772 112.782L138.262 113.664ZM142.966 106.454C143.806 106.454 144.473 106.792 144.968 107.469C145.463 108.146 145.71 109.091 145.71 110.304C145.71 111.069 145.593 111.744 145.36 112.327C145.127 112.91 144.791 113.363 144.352 113.685C143.913 114.007 143.4 114.168 142.812 114.168C142.037 114.168 141.384 113.841 140.852 113.188L140.726 114H139.592V103.654L140.88 103.5V107.546C141.412 106.818 142.107 106.454 142.966 106.454ZM142.504 113.146C143.073 113.146 143.519 112.915 143.841 112.453C144.163 111.991 144.324 111.275 144.324 110.304C144.324 109.305 144.175 108.584 143.876 108.141C143.577 107.698 143.153 107.476 142.602 107.476C141.949 107.476 141.375 107.859 140.88 108.624V112.152C141.076 112.46 141.316 112.703 141.601 112.88C141.886 113.057 142.187 113.146 142.504 113.146ZM151.114 106.454C151.375 106.454 151.618 106.482 151.842 106.538L151.604 107.798C151.38 107.742 151.165 107.714 150.96 107.714C150.503 107.714 150.134 107.882 149.854 108.218C149.574 108.554 149.355 109.077 149.196 109.786V114H147.908V106.622H149.014L149.14 108.12C149.336 107.569 149.602 107.154 149.938 106.874C150.274 106.594 150.666 106.454 151.114 106.454ZM158.884 110.094C158.884 110.309 158.875 110.528 158.856 110.752H154.152C154.208 111.564 154.413 112.161 154.768 112.544C155.123 112.927 155.58 113.118 156.14 113.118C156.495 113.118 156.821 113.067 157.12 112.964C157.419 112.861 157.731 112.698 158.058 112.474L158.618 113.244C157.834 113.86 156.975 114.168 156.042 114.168C155.015 114.168 154.215 113.832 153.641 113.16C153.067 112.488 152.78 111.564 152.78 110.388C152.78 109.623 152.904 108.944 153.151 108.351C153.398 107.758 153.753 107.294 154.215 106.958C154.677 106.622 155.221 106.454 155.846 106.454C156.826 106.454 157.577 106.776 158.1 107.42C158.623 108.064 158.884 108.955 158.884 110.094ZM157.61 109.716C157.61 108.988 157.465 108.433 157.176 108.05C156.887 107.667 156.453 107.476 155.874 107.476C154.819 107.476 154.245 108.251 154.152 109.8H157.61V109.716ZM165.982 112.278C165.982 112.577 166.033 112.798 166.136 112.943C166.239 113.088 166.393 113.197 166.598 113.272L166.304 114.168C165.921 114.121 165.613 114.014 165.38 113.846C165.147 113.678 164.974 113.417 164.862 113.062C164.367 113.799 163.635 114.168 162.664 114.168C161.936 114.168 161.362 113.963 160.942 113.552C160.522 113.141 160.312 112.605 160.312 111.942C160.312 111.158 160.594 110.556 161.159 110.136C161.724 109.716 162.524 109.506 163.56 109.506H164.694V108.96C164.694 108.437 164.568 108.064 164.316 107.84C164.064 107.616 163.677 107.504 163.154 107.504C162.613 107.504 161.95 107.635 161.166 107.896L160.844 106.958C161.759 106.622 162.608 106.454 163.392 106.454C164.26 106.454 164.909 106.666 165.338 107.091C165.767 107.516 165.982 108.12 165.982 108.904V112.278ZM162.958 113.202C163.695 113.202 164.274 112.819 164.694 112.054V110.36H163.728C162.365 110.36 161.684 110.864 161.684 111.872C161.684 112.311 161.791 112.642 162.006 112.866C162.221 113.09 162.538 113.202 162.958 113.202ZM174.34 114H173.206L173.08 112.978C172.837 113.351 172.534 113.643 172.17 113.853C171.806 114.063 171.4 114.168 170.952 114.168C170.075 114.168 169.391 113.823 168.901 113.132C168.411 112.441 168.166 111.513 168.166 110.346C168.166 109.59 168.283 108.918 168.516 108.33C168.749 107.742 169.085 107.282 169.524 106.951C169.963 106.62 170.476 106.454 171.064 106.454C171.82 106.454 172.483 106.757 173.052 107.364V103.5L174.34 103.654V114ZM171.232 113.146C171.624 113.146 171.96 113.055 172.24 112.873C172.52 112.691 172.791 112.418 173.052 112.054V108.442C172.809 108.125 172.55 107.884 172.275 107.721C172 107.558 171.689 107.476 171.344 107.476C170.775 107.476 170.334 107.714 170.021 108.19C169.708 108.666 169.552 109.375 169.552 110.318C169.552 111.27 169.697 111.979 169.986 112.446C170.275 112.913 170.691 113.146 171.232 113.146Z" fill="#1A4A44"/>
<path id="Joe Johnston Whoa, i" fill-rule="evenodd" clip-rule="evenodd" d="M26.584 82.53C26.584 83.3046 26.4463 83.944 26.171 84.448C25.8957 84.952 25.5317 85.3463 25.079 85.631C24.6263 85.9156 24.0873 86.1606 23.462 86.366L22.846 84.742C23.2567 84.5833 23.5647 84.4013 23.77 84.196C23.9753 83.9906 24.113 83.7526 24.183 83.482C24.253 83.2113 24.288 82.866 24.288 82.446V74.298H26.584V82.53ZM31.526 76.328C32.6647 76.328 33.556 76.6756 34.2 77.371C34.844 78.0663 35.166 79.0393 35.166 80.29C35.166 81.0833 35.019 81.7763 34.725 82.369C34.431 82.9616 34.011 83.4213 33.465 83.748C32.919 84.0746 32.2727 84.238 31.526 84.238C30.3967 84.238 29.5077 83.8903 28.859 83.195C28.2103 82.4996 27.886 81.5266 27.886 80.276C27.886 79.4826 28.033 78.7896 28.327 78.197C28.621 77.6043 29.041 77.1446 29.587 76.818C30.133 76.4913 30.7793 76.328 31.526 76.328ZM31.526 77.952C31.078 77.952 30.742 78.141 30.518 78.519C30.294 78.897 30.182 79.4826 30.182 80.276C30.182 81.088 30.2917 81.6806 30.511 82.054C30.7303 82.4273 31.0687 82.614 31.526 82.614C31.974 82.614 32.31 82.425 32.534 82.047C32.758 81.669 32.87 81.0833 32.87 80.29C32.87 79.478 32.7603 78.8853 32.541 78.512C32.3217 78.1386 31.9833 77.952 31.526 77.952ZM42.964 80.136C42.964 80.444 42.95 80.71 42.922 80.934H38.33C38.3953 81.5593 38.568 81.998 38.848 82.25C39.128 82.502 39.5153 82.628 40.01 82.628C40.3087 82.628 40.598 82.5743 40.878 82.467C41.158 82.3596 41.4613 82.194 41.788 81.97L42.698 83.202C41.83 83.8926 40.864 84.238 39.8 84.238C38.596 84.238 37.672 83.8833 37.028 83.174C36.384 82.4646 36.062 81.5126 36.062 80.318C36.062 79.562 36.1973 78.883 36.468 78.281C36.7387 77.679 37.1353 77.203 37.658 76.853C38.1807 76.503 38.806 76.328 39.534 76.328C40.6073 76.328 41.4473 76.664 42.054 77.336C42.6607 78.008 42.964 78.9413 42.964 80.136ZM40.794 79.506C40.7753 78.3673 40.374 77.798 39.59 77.798C39.2073 77.798 38.9133 77.9356 38.708 78.211C38.5027 78.4863 38.372 78.9506 38.316 79.604H40.794V79.506ZM50.272 82.53C50.272 83.3046 50.1343 83.944 49.859 84.448C49.5837 84.952 49.2197 85.3463 48.767 85.631C48.3143 85.9156 47.7753 86.1606 47.15 86.366L46.534 84.742C46.9447 84.5833 47.2527 84.4013 47.458 84.196C47.6633 83.9906 47.801 83.7526 47.871 83.482C47.941 83.2113 47.976 82.866 47.976 82.446V74.298H50.272V82.53ZM55.214 76.328C56.3527 76.328 57.244 76.6756 57.888 77.371C58.532 78.0663 58.854 79.0393 58.854 80.29C58.854 81.0833 58.707 81.7763 58.413 82.369C58.119 82.9616 57.699 83.4213 57.153 83.748C56.607 84.0746 55.9607 84.238 55.214 84.238C54.0847 84.238 53.1957 83.8903 52.547 83.195C51.8983 82.4996 51.574 81.5266 51.574 80.276C51.574 79.4826 51.721 78.7896 52.015 78.197C52.309 77.6043 52.729 77.1446 53.275 76.818C53.821 76.4913 54.4673 76.328 55.214 76.328ZM55.214 77.952C54.766 77.952 54.43 78.141 54.206 78.519C53.982 78.897 53.87 79.4826 53.87 80.276C53.87 81.088 53.9797 81.6806 54.199 82.054C54.4183 82.4273 54.7567 82.614 55.214 82.614C55.662 82.614 55.998 82.425 56.222 82.047C56.446 81.669 56.558 81.0833 56.558 80.29C56.558 79.478 56.4483 78.8853 56.229 78.512C56.0097 78.1386 55.6713 77.952 55.214 77.952ZM64.524 76.328C65.168 76.328 65.672 76.524 66.036 76.916C66.4 77.308 66.582 77.8586 66.582 78.568V84H64.37V78.946C64.37 78.5726 64.3093 78.3136 64.188 78.169C64.0667 78.0243 63.894 77.952 63.67 77.952C63.222 77.952 62.7927 78.2693 62.382 78.904V84H60.17V73.612L62.382 73.388V77.35C62.69 77.0046 63.0167 76.748 63.362 76.58C63.7073 76.412 64.0947 76.328 64.524 76.328ZM72.602 76.328C73.246 76.328 73.75 76.524 74.114 76.916C74.478 77.308 74.66 77.8586 74.66 78.568V84H72.448V78.946C72.448 78.5726 72.3897 78.3136 72.273 78.169C72.1563 78.0243 71.9813 77.952 71.748 77.952C71.3 77.952 70.8707 78.274 70.46 78.918V84H68.248V76.566H70.18L70.334 77.448C70.6607 77.0746 71.0083 76.7946 71.377 76.608C71.7457 76.4213 72.154 76.328 72.602 76.328ZM78.944 76.328C79.476 76.328 79.9753 76.4073 80.442 76.566C80.9087 76.7246 81.3193 76.9486 81.674 77.238L80.862 78.498C80.2647 78.106 79.6767 77.91 79.098 77.91C78.7713 77.91 78.5287 77.959 78.37 78.057C78.2113 78.155 78.132 78.2926 78.132 78.47C78.132 78.61 78.167 78.7243 78.237 78.813C78.307 78.9016 78.4493 78.9926 78.664 79.086C78.8787 79.1793 79.21 79.2913 79.658 79.422C80.4327 79.646 81.009 79.9376 81.387 80.297C81.765 80.6563 81.954 81.1533 81.954 81.788C81.954 82.292 81.8093 82.7283 81.52 83.097C81.2307 83.4656 80.834 83.748 80.33 83.944C79.826 84.14 79.266 84.238 78.65 84.238C78.0247 84.238 77.4437 84.14 76.907 83.944C76.3703 83.748 75.9153 83.4773 75.542 83.132L76.634 81.914C76.914 82.1473 77.222 82.3293 77.558 82.46C77.894 82.5906 78.2347 82.656 78.58 82.656C78.9253 82.656 79.1937 82.5953 79.385 82.474C79.5763 82.3526 79.672 82.1846 79.672 81.97C79.672 81.7926 79.6347 81.6503 79.56 81.543C79.4853 81.4356 79.3407 81.3376 79.126 81.249C78.9113 81.1603 78.5707 81.0506 78.104 80.92C77.3667 80.7053 76.816 80.4066 76.452 80.024C76.088 79.6413 75.906 79.1653 75.906 78.596C75.906 78.1666 76.0297 77.7816 76.277 77.441C76.5243 77.1003 76.879 76.8296 77.341 76.629C77.803 76.4283 78.3373 76.328 78.944 76.328ZM87.75 83.65C87.4793 83.8366 87.1643 83.9813 86.805 84.084C86.4457 84.1866 86.0887 84.238 85.734 84.238C84.11 84.2286 83.298 83.3326 83.298 81.55V78.106H82.248V76.566H83.298V74.956L85.51 74.704V76.566H87.218L86.98 78.106H85.51V81.522C85.51 81.8673 85.566 82.1146 85.678 82.264C85.79 82.4133 85.9673 82.488 86.21 82.488C86.4713 82.488 86.7373 82.404 87.008 82.236L87.75 83.65ZM91.712 76.328C92.8507 76.328 93.742 76.6756 94.386 77.371C95.03 78.0663 95.352 79.0393 95.352 80.29C95.352 81.0833 95.205 81.7763 94.911 82.369C94.617 82.9616 94.197 83.4213 93.651 83.748C93.105 84.0746 92.4587 84.238 91.712 84.238C90.5827 84.238 89.6937 83.8903 89.045 83.195C88.3963 82.4996 88.072 81.5266 88.072 80.276C88.072 79.4826 88.219 78.7896 88.513 78.197C88.807 77.6043 89.227 77.1446 89.773 76.818C90.319 76.4913 90.9653 76.328 91.712 76.328ZM91.712 77.952C91.264 77.952 90.928 78.141 90.704 78.519C90.48 78.897 90.368 79.4826 90.368 80.276C90.368 81.088 90.4777 81.6806 90.697 82.054C90.9163 82.4273 91.2547 82.614 91.712 82.614C92.16 82.614 92.496 82.425 92.72 82.047C92.944 81.669 93.056 81.0833 93.056 80.29C93.056 79.478 92.9463 78.8853 92.727 78.512C92.5077 78.1386 92.1693 77.952 91.712 77.952ZM101.022 76.328C101.666 76.328 102.17 76.524 102.534 76.916C102.898 77.308 103.08 77.8586 103.08 78.568V84H100.868V78.946C100.868 78.5726 100.81 78.3136 100.693 78.169C100.576 78.0243 100.401 77.952 100.168 77.952C99.72 77.952 99.2907 78.274 98.88 78.918V84H96.668V76.566H98.6L98.754 77.448C99.0807 77.0746 99.4283 76.7946 99.797 76.608C100.166 76.4213 100.574 76.328 101.022 76.328ZM114.742 84L112.964 75.922L111.172 84H109.506L107.546 74.354H108.848L110.402 82.838L112.264 74.354H113.678L115.582 82.838L117.192 74.354H118.41L116.45 84H114.742ZM123.562 76.454C124.234 76.454 124.759 76.6546 125.137 77.056C125.515 77.4573 125.704 78.008 125.704 78.708V84H124.416V78.89C124.416 78.3673 124.316 77.9986 124.115 77.784C123.914 77.5693 123.623 77.462 123.24 77.462C122.857 77.462 122.517 77.574 122.218 77.798C121.919 78.022 121.639 78.3393 121.378 78.75V84H120.09V73.668L121.378 73.528V77.644C121.957 76.8506 122.685 76.454 123.562 76.454ZM131.066 76.454C132.102 76.454 132.907 76.7993 133.481 77.49C134.055 78.1806 134.342 79.1186 134.342 80.304C134.342 81.0693 134.211 81.7436 133.95 82.327C133.689 82.9103 133.311 83.363 132.816 83.685C132.321 84.007 131.733 84.168 131.052 84.168C130.016 84.168 129.209 83.8226 128.63 83.132C128.051 82.4413 127.762 81.5033 127.762 80.318C127.762 79.5526 127.893 78.8783 128.154 78.295C128.415 77.7116 128.793 77.259 129.288 76.937C129.783 76.615 130.375 76.454 131.066 76.454ZM131.066 77.49C129.787 77.49 129.148 78.4326 129.148 80.318C129.148 82.194 129.783 83.132 131.052 83.132C132.321 83.132 132.956 82.1893 132.956 80.304C132.956 78.4279 132.326 77.49 131.066 77.49ZM141.44 82.278C141.44 82.5766 141.491 82.7983 141.594 82.943C141.697 83.0876 141.851 83.1973 142.056 83.272L141.762 84.168C141.379 84.1213 141.071 84.014 140.838 83.846C140.605 83.678 140.432 83.4166 140.32 83.062C139.825 83.7993 139.093 84.168 138.122 84.168C137.394 84.168 136.82 83.9626 136.4 83.552C135.98 83.1413 135.77 82.6046 135.77 81.942C135.77 81.158 136.052 80.556 136.617 80.136C137.182 79.716 137.982 79.506 139.018 79.506H140.152V78.96C140.152 78.4373 140.026 78.064 139.774 77.84C139.522 77.616 139.135 77.504 138.612 77.504C138.071 77.504 137.408 77.6346 136.624 77.896L136.302 76.958C137.217 76.622 138.066 76.454 138.85 76.454C139.718 76.454 140.367 76.6663 140.796 77.091C141.225 77.5156 141.44 78.12 141.44 78.904V82.278ZM138.416 83.202C139.153 83.202 139.732 82.8193 140.152 82.054V80.36H139.186C137.823 80.36 137.142 80.864 137.142 81.872C137.142 82.3106 137.249 82.642 137.464 82.866C137.679 83.09 137.996 83.202 138.416 83.202ZM144.422 82.222C144.702 82.222 144.935 82.3153 145.122 82.502C145.309 82.6886 145.402 82.9173 145.402 83.188C145.402 83.4773 145.318 83.8086 145.15 84.182L144.212 86.324H143.288L143.848 84C143.727 83.9066 143.631 83.79 143.561 83.65C143.491 83.51 143.456 83.356 143.456 83.188C143.456 82.9173 143.549 82.6886 143.736 82.502C143.923 82.3153 144.151 82.222 144.422 82.222ZM151.156 84V76.622H152.444V84H151.156ZM151.786 73.08C152.057 73.08 152.276 73.164 152.444 73.332C152.612 73.5 152.696 73.71 152.696 73.962C152.696 74.214 152.612 74.4216 152.444 74.585C152.276 74.7483 152.057 74.83 151.786 74.83C151.525 74.83 151.31 74.7483 151.142 74.585C150.974 74.4216 150.89 74.214 150.89 73.962C150.89 73.71 150.974 73.5 151.142 73.332C151.31 73.164 151.525 73.08 151.786 73.08ZM157.106 76.454C157.61 76.454 158.063 76.524 158.464 76.664C158.865 76.804 159.248 77.014 159.612 77.294L159.052 78.148C158.725 77.9146 158.41 77.7443 158.107 77.637C157.804 77.5296 157.484 77.476 157.148 77.476C156.728 77.476 156.397 77.5623 156.154 77.735C155.911 77.9076 155.79 78.1433 155.79 78.442C155.79 78.7406 155.904 78.974 156.133 79.142C156.362 79.31 156.775 79.4733 157.372 79.632C158.193 79.8373 158.807 80.1173 159.213 80.472C159.619 80.8266 159.822 81.312 159.822 81.928C159.822 82.656 159.54 83.2113 158.975 83.594C158.41 83.9766 157.722 84.168 156.91 84.168C155.79 84.168 154.861 83.846 154.124 83.202L154.838 82.39C155.417 82.8846 156.098 83.132 156.882 83.132C157.358 83.132 157.741 83.034 158.03 82.838C158.319 82.642 158.464 82.3806 158.464 82.054C158.464 81.7926 158.413 81.5803 158.31 81.417C158.207 81.2536 158.032 81.1136 157.785 80.997C157.538 80.8803 157.167 80.7566 156.672 80.626C155.888 80.4206 155.321 80.143 154.971 79.793C154.621 79.443 154.446 79.002 154.446 78.47C154.446 78.0873 154.56 77.742 154.789 77.434C155.018 77.126 155.335 76.8856 155.741 76.713C156.147 76.5403 156.602 76.454 157.106 76.454ZM169.076 83.664C168.591 84 168.04 84.168 167.424 84.168C166.799 84.168 166.311 83.9883 165.961 83.629C165.611 83.2696 165.436 82.7493 165.436 82.068V77.616H164.148V76.622H165.436V74.956L166.724 74.802V76.622H168.474L168.334 77.616H166.724V82.012C166.724 82.3946 166.792 82.6723 166.927 82.845C167.062 83.0176 167.289 83.104 167.606 83.104C167.914 83.104 168.241 82.9966 168.586 82.782L169.076 83.664ZM173.878 76.454C174.55 76.454 175.075 76.6546 175.453 77.056C175.831 77.4573 176.02 78.008 176.02 78.708V84H174.732V78.89C174.732 78.3673 174.632 77.9986 174.431 77.784C174.23 77.5693 173.939 77.462 173.556 77.462C173.173 77.462 172.833 77.574 172.534 77.798C172.235 78.022 171.955 78.3393 171.694 78.75V84H170.406V73.668L171.694 73.528V77.644C172.273 76.8506 173.001 76.454 173.878 76.454ZM178.61 84V76.622H179.898V84H178.61ZM179.24 73.08C179.511 73.08 179.73 73.164 179.898 73.332C180.066 73.5 180.15 73.71 180.15 73.962C180.15 74.214 180.066 74.4216 179.898 74.585C179.73 74.7483 179.511 74.83 179.24 74.83C178.979 74.83 178.764 74.7483 178.596 74.585C178.428 74.4216 178.344 74.214 178.344 73.962C178.344 73.71 178.428 73.5 178.596 73.332C178.764 73.164 178.979 73.08 179.24 73.08ZM184.56 76.454C185.064 76.454 185.517 76.524 185.918 76.664C186.319 76.804 186.702 77.014 187.066 77.294L186.506 78.148C186.179 77.9146 185.864 77.7443 185.561 77.637C185.258 77.5296 184.938 77.476 184.602 77.476C184.182 77.476 183.851 77.5623 183.608 77.735C183.365 77.9076 183.244 78.1433 183.244 78.442C183.244 78.7406 183.358 78.974 183.587 79.142C183.816 79.31 184.229 79.4733 184.826 79.632C185.647 79.8373 186.261 80.1173 186.667 80.472C187.073 80.8266 187.276 81.312 187.276 81.928C187.276 82.656 186.994 83.2113 186.429 83.594C185.864 83.9766 185.176 84.168 184.364 84.168C183.244 84.168 182.315 83.846 181.578 83.202L182.292 82.39C182.871 82.8846 183.552 83.132 184.336 83.132C184.812 83.132 185.195 83.034 185.484 82.838C185.773 82.642 185.918 82.3806 185.918 82.054C185.918 81.7926 185.867 81.5803 185.764 81.417C185.661 81.2536 185.486 81.1136 185.239 80.997C184.992 80.8803 184.621 80.7566 184.126 80.626C183.342 80.4206 182.775 80.143 182.425 79.793C182.075 79.443 181.9 79.002 181.9 78.47C181.9 78.0873 182.014 77.742 182.243 77.434C182.472 77.126 182.789 76.8856 183.195 76.713C183.601 76.5403 184.056 76.454 184.56 76.454ZM196.194 76.454C197.137 76.454 197.827 76.79 198.266 77.462C198.705 78.134 198.924 79.0813 198.924 80.304C198.924 81.4613 198.672 82.3946 198.168 83.104C197.664 83.8133 196.95 84.168 196.026 84.168C195.205 84.168 194.561 83.888 194.094 83.328V86.828L192.806 86.982V76.622H193.912L194.01 77.616C194.281 77.2426 194.607 76.9556 194.99 76.755C195.373 76.5543 195.774 76.454 196.194 76.454ZM195.718 83.118C196.931 83.118 197.538 82.18 197.538 80.304C197.538 78.4186 196.983 77.476 195.872 77.476C195.508 77.476 195.177 77.5833 194.878 77.798C194.579 78.0126 194.318 78.288 194.094 78.624V82.222C194.281 82.5113 194.514 82.733 194.794 82.887C195.074 83.041 195.382 83.118 195.718 83.118ZM202.34 82.516C202.34 82.7213 202.375 82.8706 202.445 82.964C202.515 83.0573 202.634 83.104 202.802 83.104C202.979 83.104 203.138 83.076 203.278 83.02L203.614 83.916C203.269 84.084 202.905 84.168 202.522 84.168C202.046 84.168 201.682 84.0303 201.43 83.755C201.178 83.4796 201.052 83.076 201.052 82.544V73.654L202.34 73.5V82.516ZM210.194 82.278C210.194 82.5766 210.245 82.7983 210.348 82.943C210.451 83.0876 210.605 83.1973 210.81 83.272L210.516 84.168C210.133 84.1213 209.825 84.014 209.592 83.846C209.359 83.678 209.186 83.4166 209.074 83.062C208.579 83.7993 207.847 84.168 206.876 84.168C206.148 84.168 205.574 83.9626 205.154 83.552C204.734 83.1413 204.524 82.6046 204.524 81.942C204.524 81.158 204.806 80.556 205.371 80.136C205.936 79.716 206.736 79.506 207.772 79.506H208.906V78.96C208.906 78.4373 208.78 78.064 208.528 77.84C208.276 77.616 207.889 77.504 207.366 77.504C206.825 77.504 206.162 77.6346 205.378 77.896L205.056 76.958C205.971 76.622 206.82 76.454 207.604 76.454C208.472 76.454 209.121 76.6663 209.55 77.091C209.979 77.5156 210.194 78.12 210.194 78.904V82.278ZM207.17 83.202C207.907 83.202 208.486 82.8193 208.906 82.054V80.36H207.94C206.577 80.36 205.896 80.864 205.896 81.872C205.896 82.3106 206.003 82.642 206.218 82.866C206.433 83.09 206.75 83.202 207.17 83.202ZM215.528 76.454C215.967 76.454 216.368 76.517 216.732 76.643C217.096 76.769 217.446 76.972 217.782 77.252L217.152 78.092C216.9 77.896 216.653 77.7513 216.41 77.658C216.167 77.5646 215.892 77.518 215.584 77.518C214.987 77.518 214.522 77.756 214.191 78.232C213.86 78.708 213.694 79.4126 213.694 80.346C213.694 81.2793 213.857 81.9676 214.184 82.411C214.511 82.8543 214.977 83.076 215.584 83.076C215.883 83.076 216.151 83.0293 216.389 82.936C216.627 82.8426 216.886 82.6886 217.166 82.474L217.782 83.356C217.11 83.8973 216.359 84.168 215.528 84.168C214.529 84.168 213.743 83.832 213.169 83.16C212.595 82.488 212.308 81.5593 212.308 80.374C212.308 79.59 212.439 78.904 212.7 78.316C212.961 77.728 213.332 77.2706 213.813 76.944C214.294 76.6173 214.865 76.454 215.528 76.454ZM225.104 80.094C225.104 80.3086 225.095 80.528 225.076 80.752H220.372C220.428 81.564 220.633 82.1613 220.988 82.544C221.343 82.9266 221.8 83.118 222.36 83.118C222.715 83.118 223.041 83.0666 223.34 82.964C223.639 82.8613 223.951 82.698 224.278 82.474L224.838 83.244C224.054 83.86 223.195 84.168 222.262 84.168C221.235 84.168 220.435 83.832 219.861 83.16C219.287 82.488 219 81.564 219 80.388C219 79.6226 219.124 78.9436 219.371 78.351C219.618 77.7583 219.973 77.294 220.435 76.958C220.897 76.622 221.441 76.454 222.066 76.454C223.046 76.454 223.797 76.776 224.32 77.42C224.843 78.064 225.104 78.9553 225.104 80.094ZM223.83 79.716C223.83 78.988 223.685 78.4326 223.396 78.05C223.107 77.6673 222.673 77.476 222.094 77.476C221.039 77.476 220.465 78.2506 220.372 79.8H223.83V79.716ZM234.414 76.454C235.086 76.454 235.611 76.6546 235.989 77.056C236.367 77.4573 236.556 78.008 236.556 78.708V84H235.268V78.89C235.268 78.3673 235.17 77.9986 234.974 77.784C234.778 77.5693 234.489 77.462 234.106 77.462C233.714 77.462 233.369 77.574 233.07 77.798C232.771 78.022 232.491 78.344 232.23 78.764V84H230.942V76.622H232.048L232.16 77.714C232.421 77.322 232.746 77.014 233.133 76.79C233.52 76.566 233.947 76.454 234.414 76.454ZM244.718 80.094C244.718 80.3086 244.709 80.528 244.69 80.752H239.986C240.042 81.564 240.247 82.1613 240.602 82.544C240.957 82.9266 241.414 83.118 241.974 83.118C242.329 83.118 242.655 83.0666 242.954 82.964C243.253 82.8613 243.565 82.698 243.892 82.474L244.452 83.244C243.668 83.86 242.809 84.168 241.876 84.168C240.849 84.168 240.049 83.832 239.475 83.16C238.901 82.488 238.614 81.564 238.614 80.388C238.614 79.6226 238.738 78.9436 238.985 78.351C239.232 77.7583 239.587 77.294 240.049 76.958C240.511 76.622 241.055 76.454 241.68 76.454C242.66 76.454 243.411 76.776 243.934 77.42C244.457 78.064 244.718 78.9553 244.718 80.094ZM243.444 79.716C243.444 78.988 243.299 78.4326 243.01 78.05C242.721 77.6673 242.287 77.476 241.708 77.476C240.653 77.476 240.079 78.2506 239.986 79.8H243.444V79.716ZM251.844 84L250.556 77.784L249.226 84H247.518L245.796 76.622H247.084L248.414 83.104L249.87 76.622H251.312L252.698 83.104L254.042 76.622H255.274L253.594 84H251.844ZM258.886 74.186C259.446 74.186 259.929 74.2863 260.335 74.487C260.741 74.6876 261.047 74.956 261.252 75.292C261.457 75.628 261.56 75.9873 261.56 76.37C261.56 76.734 261.497 77.0443 261.371 77.301C261.245 77.5576 261.093 77.7653 260.916 77.924C260.739 78.0826 260.501 78.2646 260.202 78.47C259.931 78.6566 259.719 78.8176 259.565 78.953C259.411 79.0883 259.283 79.254 259.18 79.45C259.077 79.646 259.026 79.8793 259.026 80.15V80.78H257.752V80.08C257.752 79.6786 257.82 79.3356 257.955 79.051C258.09 78.7663 258.256 78.5376 258.452 78.365C258.648 78.1923 258.895 78.008 259.194 77.812C259.549 77.5693 259.808 77.357 259.971 77.175C260.134 76.993 260.216 76.7526 260.216 76.454C260.216 76.0713 260.09 75.775 259.838 75.565C259.586 75.355 259.241 75.25 258.802 75.25C258.055 75.25 257.407 75.586 256.856 76.258L255.974 75.572C256.758 74.648 257.729 74.186 258.886 74.186ZM258.424 82.222C258.704 82.222 258.937 82.3153 259.124 82.502C259.311 82.6886 259.404 82.9173 259.404 83.188C259.404 83.4586 259.311 83.6896 259.124 83.881C258.937 84.0723 258.704 84.168 258.424 84.168C258.153 84.168 257.925 84.0723 257.738 83.881C257.551 83.6896 257.458 83.4586 257.458 83.188C257.458 82.9173 257.551 82.6886 257.738 82.502C257.925 82.3153 258.153 82.222 258.424 82.222Z" fill="#1A4A44"/>
<g id="bg_3" filter="url(#filter1_d)">
<path fill-rule="evenodd" clip-rule="evenodd" d="M23 0H297V50H23V0Z" fill="white"/>
</g>
<path id="7" fill-rule="evenodd" clip-rule="evenodd" d="M295.622 19.801V20.711C295.622 20.9677 295.594 21.1754 295.538 21.334C295.482 21.4927 295.428 21.628 295.377 21.74L291.814 29.286C291.721 29.4867 291.583 29.6559 291.401 29.7935C291.219 29.9312 290.979 30 290.68 30H289.098L292.738 22.699C292.836 22.4984 292.942 22.3187 293.057 22.16C293.171 22.0014 293.296 21.8497 293.431 21.705H288.944C288.879 21.705 288.817 21.6922 288.759 21.6665C288.7 21.6409 288.649 21.6059 288.605 21.5615C288.56 21.5172 288.524 21.4659 288.496 21.4075C288.468 21.3492 288.454 21.2897 288.454 21.229V19.801H295.622Z" fill="#32BBAB"/>
<g id="icon_like_small">
<path id="Oval" fill-rule="evenodd" clip-rule="evenodd" d="M273 35C278.523 35 283 30.5228 283 25C283 19.4772 278.523 15 273 15C267.477 15 263 19.4772 263 25C263 30.5228 267.477 35 273 35Z" fill="url(#paint9_linear)"/>
<path id="Fill 3" fill-rule="evenodd" clip-rule="evenodd" d="M268.25 24.0117C268.112 24.0117 268 24.1297 268 24.274V29.7377C268 29.882 268.112 30 268.25 30H269.5C269.775 30 270 29.7639 270 29.4754V24.5363C270 24.2478 269.775 24.0117 269.5 24.0117H268.25ZM277.25 26.3277H276.856C277.218 26.3933 277.5 26.7196 277.5 27.1146C277.5 27.5474 277.162 27.9015 276.75 27.9015H276.587C276.58 27.9273 276.573 27.953 276.567 27.9781C276.821 28.1046 277 28.3747 277 28.6885C277 29.1213 276.662 29.4754 276.25 29.4754H275.75C275.696 29.4754 275.643 29.4686 275.591 29.4565C273.642 29.6496 272.082 29.3033 271 28.9508V23.7046C271.997 23.7046 271.959 23.1008 272.622 22.4094C273.242 21.762 273.651 21.5081 273.651 20.5585C273.651 19.876 274.506 19.8335 274.878 20.3518C275.584 21.3329 273.88 23.1685 275.522 23.1685C275.588 23.1685 275.651 23.1753 275.712 23.1842C275.725 23.1832 275.737 23.18 275.75 23.18H277.25C277.662 23.18 278 23.5341 278 23.9669C278 24.3997 277.662 24.7539 277.25 24.7539C277.662 24.7539 278 25.108 278 25.5408C278 25.9736 277.662 26.3277 277.25 26.3277Z" fill="white"/>
</g>
<path id="Like" fill-rule="evenodd" clip-rule="evenodd" d="M57.692 27.838L57.538 29H52.4V19.354H53.73V27.838H57.692ZM59.302 29V21.622H60.59V29H59.302ZM59.932 18.08C60.2027 18.08 60.422 18.164 60.59 18.332C60.758 18.5 60.842 18.71 60.842 18.962C60.842 19.214 60.758 19.4216 60.59 19.585C60.422 19.7483 60.2027 19.83 59.932 19.83C59.6707 19.83 59.456 19.7483 59.288 19.585C59.12 19.4216 59.036 19.214 59.036 18.962C59.036 18.71 59.12 18.5 59.288 18.332C59.456 18.164 59.6707 18.08 59.932 18.08ZM63.25 29V18.654L64.538 18.5V29H63.25ZM69.088 29H67.548L64.622 24.968L67.338 21.622H68.78L66.064 24.884L69.088 29ZM75.99 25.094C75.99 25.3086 75.9807 25.528 75.962 25.752H71.258C71.314 26.564 71.5193 27.1613 71.874 27.544C72.2287 27.9266 72.686 28.118 73.246 28.118C73.6007 28.118 73.9273 28.0666 74.226 27.964C74.5247 27.8613 74.8373 27.698 75.164 27.474L75.724 28.244C74.94 28.86 74.0813 29.168 73.148 29.168C72.1213 29.168 71.321 28.832 70.747 28.16C70.173 27.488 69.886 26.564 69.886 25.388C69.886 24.6226 70.0097 23.9436 70.257 23.351C70.5043 22.7583 70.859 22.294 71.321 21.958C71.783 21.622 72.3267 21.454 72.952 21.454C73.932 21.454 74.6833 21.776 75.206 22.42C75.7287 23.064 75.99 23.9553 75.99 25.094ZM74.716 24.716C74.716 23.988 74.5713 23.4326 74.282 23.05C73.9927 22.6673 73.5587 22.476 72.98 22.476C71.9253 22.476 71.3513 23.2506 71.258 24.8H74.716V24.716Z" fill="#1A4A44"/>
<g id="icon_like">
<path id="Fill 3_2" fill-rule="evenodd" clip-rule="evenodd" d="M26.5 22C26.225 22 26 22.225 26 22.5V33.5C26 33.775 26.225 34 26.5 34H29C29.55 34 30 33.55 30 33V23C30 22.45 29.55 22 29 22H26.5ZM43.5 27H42.712C43.436 27.125 44 27.747 44 28.5C44 29.325 43.325 30 42.5 30H42.173C42.16 30.049 42.147 30.098 42.134 30.146C42.643 30.387 43 30.902 43 31.5C43 32.325 42.325 33 41.5 33H40.5C40.391 33 40.285 32.987 40.182 32.964C36.283 33.332 33.163 32.672 31 32V22C32.994 22 32.919 20.849 34.244 19.531C35.484 18.297 36.303 17.813 36.303 16.003C36.303 14.702 38.011 14.621 38.756 15.609C40.167 17.479 36.761 20.978 40.044 20.978C40.177 20.978 40.302 20.991 40.424 21.008C40.45 21.006 40.474 21 40.5 21H43.5C44.325 21 45 21.675 45 22.5C45 23.325 44.325 24 43.5 24C44.325 24 45 24.675 45 25.5C45 26.325 44.325 27 43.5 27Z" fill="#B5BFBE"/>
</g>
</g>
<defs>
<filter id="filter0_d" x="23" y="223" width="274" height="51" filterUnits="userSpaceOnUse" color-interpolation-filters="sRGB">
<feFlood flood-opacity="0" result="BackgroundImageFix"/>
<feColorMatrix in="SourceAlpha" type="matrix" values="0 0 0 0 0 0 0 0 0 0 0 0 0 0 0 0 0 0 127 0"/>
<feOffset dy="-1"/>
<feColorMatrix type="matrix" values="0 0 0 0 0.882 0 0 0 0 0.9 0 0 0 0 0.8979 0 0 0 1 0"/>
<feBlend mode="normal" in2="BackgroundImageFix" result="effect1_dropShadow"/>
<feBlend mode="normal" in="SourceGraphic" in2="effect1_dropShadow" result="shape"/>
</filter>
<filter id="filter1_d" x="23" y="0" width="274" height="51" filterUnits="userSpaceOnUse" color-interpolation-filters="sRGB">
<feFlood flood-opacity="0" result="BackgroundImageFix"/>
<feColorMatrix in="SourceAlpha" type="matrix" values="0 0 0 0 0 0 0 0 0 0 0 0 0 0 0 0 0 0 127 0"/>
<feOffset dy="1"/>
<feColorMatrix type="matrix" values="0 0 0 0 0.882 0 0 0 0 0.9 0 0 0 0 0.8979 0 0 0 1 0"/>
<feBlend mode="normal" in2="BackgroundImageFix" result="effect1_dropShadow"/>
<feBlend mode="normal" in="SourceGraphic" in2="effect1_dropShadow" result="shape"/>
</filter>
<linearGradient id="paint0_linear" x1="181" y1="100" x2="181" y2="116" gradientUnits="userSpaceOnUse">
<stop stop-color="#FFF8B2"/>
<stop offset="1" stop-color="#EF8A0A"/>
</linearGradient>
<linearGradient id="paint1_linear" x1="181" y1="100" x2="181" y2="116" gradientUnits="userSpaceOnUse">
<stop stop-color="#E8B95B"/>
<stop offset="1" stop-color="#D44D07"/>
</linearGradient>
<linearGradient id="paint2_linear" x1="191.763" y1="109.285" x2="191.762" y2="113.714" gradientUnits="userSpaceOnUse">
<stop stop-color="#8C2450"/>
<stop offset="0.284518" stop-color="#FC438D"/>
<stop offset="0.703125" stop-color="#FC88C8"/>
<stop offset="1" stop-color="#EB3078"/>
</linearGradient>
<linearGradient id="paint3_linear" x1="200" y1="100" x2="200" y2="116" gradientUnits="userSpaceOnUse">
<stop stop-color="#FFF8B2"/>
<stop offset="1" stop-color="#EF8A0A"/>
</linearGradient>
<linearGradient id="paint4_linear" x1="200" y1="100" x2="200" y2="116" gradientUnits="userSpaceOnUse">
<stop stop-color="#E8B95B"/>
<stop offset="1" stop-color="#D44D07"/>
</linearGradient>
<linearGradient id="paint5_linear" x1="210.763" y1="109.285" x2="210.762" y2="113.714" gradientUnits="userSpaceOnUse">
<stop stop-color="#8C2450"/>
<stop offset="0.284518" stop-color="#FC438D"/>
<stop offset="0.703125" stop-color="#FC88C8"/>
<stop offset="1" stop-color="#EB3078"/>
</linearGradient>
<linearGradient id="paint6_linear" x1="219" y1="100" x2="219" y2="116" gradientUnits="userSpaceOnUse">
<stop stop-color="#FFF8B2"/>
<stop offset="1" stop-color="#EF8A0A"/>
</linearGradient>
<linearGradient id="paint7_linear" x1="219" y1="100" x2="219" y2="116" gradientUnits="userSpaceOnUse">
<stop stop-color="#E8B95B"/>
<stop offset="1" stop-color="#D44D07"/>
</linearGradient>
<linearGradient id="paint8_linear" x1="229.763" y1="109.285" x2="229.762" y2="113.714" gradientUnits="userSpaceOnUse">
<stop stop-color="#8C2450"/>
<stop offset="0.284518" stop-color="#FC438D"/>
<stop offset="0.703125" stop-color="#FC88C8"/>
<stop offset="1" stop-color="#EB3078"/>
</linearGradient>
<linearGradient id="paint9_linear" x1="263" y1="35" x2="283" y2="35" gradientUnits="userSpaceOnUse">
<stop stop-color="#32BB94"/>
<stop offset="1" stop-color="#16B4BD"/>
</linearGradient>
</defs>
</svg>
