<svg width="100" height="28" viewBox="0 0 100 28" fill="none" xmlns="http://www.w3.org/2000/svg">
<path d="M13.68 0C6.1248 0 0 6.1248 0 13.68C0 16.7768 1.02974 19.6331 2.76461 21.926L1.75409 25.4181C1.65215 25.7699 1.85783 25.9774 2.21062 25.879L5.81807 24.8752C8.04255 26.4402 10.7539 27.3595 13.6804 27.3595C21.2356 27.3595 27.3604 21.2347 27.3604 13.6795C27.3604 6.12435 21.2351 0 13.68 0ZM17.1461 18.4401C16.619 19.0804 15.934 19.5106 15.1331 19.7301C14.7844 19.8258 14.6283 20.0087 14.644 20.3713C14.6596 20.7268 14.6422 21.084 14.6413 21.4404C14.6404 21.7587 14.4785 21.9286 14.1651 21.9367C13.7815 21.9465 13.3974 21.9461 13.0137 21.9389C12.6771 21.9327 12.5192 21.7422 12.5152 21.4136C12.5121 21.1529 12.5107 20.8926 12.508 20.632C12.5022 20.0583 12.4839 20.0337 11.9308 19.9461C11.2234 19.8343 10.5299 19.6729 9.88249 19.359C9.3741 19.1126 9.32179 18.9856 9.46755 18.4522C9.5762 18.0556 9.6853 17.6585 9.80827 17.2664C9.95135 16.8108 10.0743 16.7536 10.4937 16.9718C11.2091 17.3447 11.9706 17.5535 12.766 17.6527C13.2798 17.7171 13.7815 17.6648 14.2572 17.4569C15.1443 17.0697 15.2834 16.0399 14.534 15.4229C14.2787 15.2127 13.9894 15.058 13.6858 14.9248C12.9087 14.5832 12.0962 14.3216 11.3616 13.8816C10.1695 13.168 9.41345 12.1883 9.50198 10.737C9.60169 9.09643 10.5295 8.0734 12.0332 7.52656C12.6534 7.3012 12.6565 7.3097 12.6601 6.66136C12.6614 6.44182 12.6574 6.22227 12.6628 6.00318C12.6753 5.51402 12.7589 5.43041 13.244 5.4161C13.3947 5.41163 13.5458 5.4152 13.6965 5.4152C14.7334 5.41341 14.7334 5.41341 14.7379 6.45165C14.741 7.18495 14.7406 7.18808 15.4712 7.30254C16.0305 7.39018 16.5649 7.55517 17.0822 7.78321C17.3679 7.90885 17.4752 8.10827 17.3876 8.40875C17.2575 8.85632 17.1363 9.30658 16.9928 9.75014C16.8573 10.1695 16.7231 10.2308 16.3207 10.0359C15.5114 9.64417 14.6623 9.48097 13.7672 9.5297C13.532 9.54267 13.303 9.57397 13.0862 9.66876C12.3131 10.0068 12.1883 10.859 12.8456 11.3857C13.1783 11.6522 13.5588 11.8449 13.9536 12.0086C14.6377 12.2921 15.3268 12.5635 15.9764 12.923C18.0462 14.0703 18.6042 16.669 17.1461 18.4401Z" fill="#90D98B"/>
<path d="M38.5207 9.1087V12.7174H43.0991V15.2174H38.5207V19.0652H44.1309V21.6304H34.9956V6.56522H44.1309L43.7655 9.1087H38.5207ZM54.2667 10.6304C54.8255 11.2391 55.1049 12.0942 55.1049 13.1957V21.6304H51.7088V13.7826C51.7088 13.2029 51.6192 12.8007 51.4401 12.5761C51.261 12.3514 50.9923 12.2391 50.634 12.2391C49.9462 12.2391 49.287 12.7391 48.6565 13.7391V21.6304H45.2603V10.087H48.2266L48.4631 11.4565C48.9646 10.8768 49.4984 10.442 50.0644 10.1522C50.6305 9.86232 51.2574 9.71739 51.9452 9.71739C52.934 9.71739 53.7078 10.0217 54.2667 10.6304ZM60.5549 19.2826C60.7555 19.2826 60.9418 19.2464 61.1137 19.1739L61.7801 21.6087C61.1495 21.8696 60.4187 22 59.5876 22C58.6275 22 57.8859 21.721 57.3629 21.163C56.8398 20.6051 56.5783 19.7971 56.5783 18.7391V5.5L59.9745 5.13044V18.3913C59.9745 18.9855 60.1679 19.2826 60.5549 19.2826ZM63.0697 21.6304V10.087H66.4659V21.6304H63.0697ZM66.1972 4.55435C66.577 4.92391 66.7668 5.3913 66.7668 5.95652C66.7668 6.52174 66.577 6.98913 66.1972 7.3587C65.8175 7.72826 65.3339 7.91305 64.7463 7.91305C64.1588 7.91305 63.6788 7.72826 63.3062 7.3587C62.9336 6.98913 62.7473 6.52174 62.7473 5.95652C62.7473 5.3913 62.9336 4.92391 63.3062 4.55435C63.6788 4.18478 64.1588 4 64.7463 4C65.3339 4 65.8175 4.18478 66.1972 4.55435ZM75.8845 11.2174C76.6297 11.5362 77.1742 11.9275 77.5181 12.3913C77.8621 12.8551 78.034 13.4565 78.034 14.1957C78.034 14.9348 77.8406 15.5978 77.4537 16.1848C77.0668 16.7717 76.5115 17.2319 75.7878 17.5652C75.0642 17.8986 74.2151 18.0652 73.2407 18.0652C72.7821 18.0652 72.3451 18.0217 71.9295 17.9348C71.8149 17.9928 71.7253 18.0833 71.6608 18.2065C71.5963 18.3297 71.5641 18.4565 71.5641 18.587C71.5641 18.8043 71.6465 18.9746 71.8113 19.0978C71.9761 19.221 72.3092 19.2826 72.8108 19.2826H74.5304C75.4045 19.2826 76.1711 19.4275 76.8303 19.7174C77.4895 20.0072 77.9982 20.4058 78.3564 20.913C78.7147 21.4203 78.8938 21.9928 78.8938 22.6304C78.8938 23.8333 78.3815 24.7717 77.3569 25.4457C76.3323 26.1196 74.8528 26.4565 72.9183 26.4565C71.5283 26.4565 70.432 26.308 69.6296 26.0109C68.8271 25.7138 68.2646 25.2971 67.9422 24.7609C67.6198 24.2246 67.4586 23.5507 67.4586 22.7391H70.5108C70.5108 23.087 70.5789 23.3623 70.715 23.5652C70.8512 23.7681 71.0984 23.9203 71.4566 24.0217C71.8149 24.1232 72.3307 24.1739 73.0042 24.1739C73.9357 24.1739 74.5805 24.0616 74.9388 23.837C75.297 23.6123 75.4761 23.2899 75.4761 22.8696C75.4761 22.5217 75.34 22.2464 75.0677 22.0435C74.7955 21.8406 74.3871 21.7391 73.8425 21.7391H72.1874C71.0124 21.7391 70.1347 21.5254 69.5543 21.0978C68.974 20.6703 68.6838 20.1232 68.6838 19.4565C68.6838 19.0362 68.8056 18.6268 69.0492 18.2283C69.2928 17.8297 69.6224 17.5 70.038 17.2391C69.3215 16.8478 68.802 16.3877 68.4796 15.8587C68.1572 15.3297 67.996 14.6884 67.996 13.9348C67.996 12.6449 68.4545 11.6196 69.3716 10.8587C70.2887 10.0978 71.4996 9.71739 73.0042 9.71739C74.1506 9.74638 75.1215 9.63044 75.9168 9.36957C76.7121 9.1087 77.5325 8.72464 78.3779 8.21739L79.1732 10.7609C78.4281 11.0652 77.3319 11.2174 75.8845 11.2174ZM71.8328 12.4891C71.5247 12.8297 71.3706 13.2971 71.3706 13.8913C71.3706 14.5145 71.5247 14.9964 71.8328 15.337C72.1409 15.6775 72.56 15.8478 73.0902 15.8478C73.6491 15.8478 74.0754 15.6812 74.3692 15.3478C74.6629 15.0145 74.8098 14.5145 74.8098 13.8478C74.8098 12.6014 74.2366 11.9783 73.0902 11.9783C72.56 11.9783 72.1409 12.1486 71.8328 12.4891ZM89.0042 10.6304C89.563 11.2391 89.8425 12.0942 89.8425 13.1957V21.6304H86.4463V13.7826C86.4463 13.2029 86.3531 12.8007 86.1669 12.5761C85.9806 12.3514 85.7155 12.2391 85.3716 12.2391C84.6837 12.2391 84.0245 12.7319 83.394 13.7174V21.6304H79.9979V5.5L83.394 5.15217V11.3043C83.8669 10.7681 84.3685 10.3696 84.8987 10.1087C85.4289 9.84782 86.0236 9.71739 86.6827 9.71739C87.6715 9.71739 88.4453 10.0217 89.0042 10.6304ZM98.1072 21.7609C97.5555 21.9203 97.0074 22 96.4629 22C93.9695 21.9855 92.7228 20.5942 92.7228 17.8261V12.4783H91.1107V10.087H92.7228V7.58696L96.1189 7.19565V10.087H98.7413L98.3759 12.4783H96.1189V17.7826C96.1189 18.3188 96.2049 18.7029 96.3769 18.9348C96.5488 19.1667 96.8211 19.2826 97.1937 19.2826C97.5949 19.2826 98.0033 19.1522 98.4189 18.8913L99.5581 21.087C99.1425 21.3768 98.6589 21.6014 98.1072 21.7609Z" fill="#219653"/>
</svg>
