<svg width="32" height="32" viewBox="0 0 32 32" fill="none" xmlns="http://www.w3.org/2000/svg">
<path d="M15.9997 0.000549316C7.16341 0.000549316 0 7.16396 0 16.0003C0 19.6223 1.20436 22.9629 3.23342 25.6446L2.05154 29.7288C1.93231 30.1404 2.17287 30.3831 2.58548 30.268L6.80466 29.094C9.40635 30.9243 12.5775 31.9995 16.0003 31.9995C24.8366 31.9995 32 24.8361 32 15.9998C32 7.16343 24.8361 0.000549316 15.9997 0.000549316ZM20.0537 21.5676C19.4371 22.3165 18.6359 22.8196 17.6993 23.0764C17.2914 23.1883 17.1089 23.4022 17.1272 23.8263C17.1455 24.242 17.1251 24.6599 17.1241 25.0767C17.123 25.449 16.9337 25.6477 16.5671 25.6571C16.1184 25.6686 15.6692 25.6681 15.2205 25.6597C14.8268 25.6524 14.6422 25.4296 14.6374 25.0453C14.6338 24.7404 14.6322 24.436 14.6291 24.1312C14.6223 23.4602 14.6008 23.4314 13.9539 23.3289C13.1266 23.1982 12.3155 23.0094 11.5583 22.6423C10.9637 22.3542 10.9025 22.2056 11.073 21.5818C11.2001 21.1179 11.3277 20.6535 11.4715 20.1949C11.6388 19.662 11.7826 19.5951 12.2732 19.8503C13.1099 20.2864 14.0005 20.5306 14.9308 20.6467C15.5317 20.722 16.1184 20.6608 16.6749 20.4177C17.7124 19.9648 17.875 18.7604 16.9986 18.0388C16.7 17.793 16.3616 17.612 16.0065 17.4562C15.0976 17.0567 14.1474 16.7507 13.2882 16.2361C11.894 15.4015 11.0097 14.2557 11.1133 12.5582C11.2299 10.6395 12.315 9.44298 14.0737 8.80341C14.799 8.53984 14.8027 8.54978 14.8069 7.7915C14.8085 7.53473 14.8037 7.27796 14.81 7.02171C14.8247 6.4496 14.9225 6.35181 15.4899 6.33508C15.6661 6.32985 15.8429 6.33403 16.0191 6.33403C17.2318 6.33194 17.2318 6.33194 17.237 7.54623C17.2407 8.40388 17.2402 8.40754 18.0947 8.54141C18.7489 8.64391 19.3738 8.83688 19.9789 9.10359C20.3131 9.25054 20.4386 9.48377 20.3361 9.8352C20.1839 10.3587 20.0422 10.8853 19.8743 11.4041C19.7158 11.8946 19.559 11.9662 19.0883 11.7382C18.1418 11.2801 17.1487 11.0892 16.1017 11.1462C15.8266 11.1614 15.5589 11.198 15.3053 11.3089C14.4011 11.7042 14.2552 12.701 15.0239 13.317C15.413 13.6287 15.858 13.8541 16.3198 14.0455C17.1199 14.377 17.9258 14.6945 18.6856 15.1149C21.1064 16.4568 21.759 19.4962 20.0537 21.5676Z" fill="black"/>
</svg>
