<svg width="305" height="473" viewBox="0 0 305 473" fill="none" xmlns="http://www.w3.org/2000/svg">
<g id="illus_hero">
<path id="Fill 1" fill-rule="evenodd" clip-rule="evenodd" d="M148.438 247.585L113.078 267.995L113.073 223.901L148.433 203.491L148.438 247.585Z" fill="#EADCC7"/>
<path id="Fill 2" fill-rule="evenodd" clip-rule="evenodd" d="M0 256.206L123.037 327.26C130.815 331.751 130.815 335.835 123.037 340.327L70.71 370.545C62.933 375.037 62.933 382.388 70.71 386.879L219.203 472.634L247.488 456.3L124.451 385.246C116.672 380.754 116.672 376.67 124.451 372.179L176.777 341.96C184.555 337.469 184.555 330.118 176.777 325.626L28.284 239.872L0 256.206Z" fill="url(#paint0_linear)"/>
<path id="Fill 5" fill-rule="evenodd" clip-rule="evenodd" d="M127.61 255.237L125.842 254.216L125.84 266.465L127.609 267.485L127.61 255.237Z" fill="#E0B475"/>
<path id="Fill 7" fill-rule="evenodd" clip-rule="evenodd" d="M113.073 267.994L77.7133 247.584L77.7183 203.491L113.078 223.9L113.073 267.994Z" fill="#F9EDD4"/>
<path id="Fill 11" fill-rule="evenodd" clip-rule="evenodd" d="M79.481 248.605L79.483 226.558L90.091 232.681L90.089 254.728L79.481 248.605Z" fill="#38C6B1"/>
<path id="Fill 13" fill-rule="evenodd" clip-rule="evenodd" d="M86.5533 250.237L83.0173 248.196V245.746L86.5533 247.787V250.237Z" fill="#E0B475"/>
<path id="Fill 15" fill-rule="evenodd" clip-rule="evenodd" d="M111.309 235.129L102.469 230.026L102.468 237.376L111.308 242.478L111.309 235.129ZM100.701 229.006L91.8606 223.903L91.8596 231.253L100.7 236.355L100.701 229.006ZM88.3236 234.111L81.2516 230.029L81.2496 242.277L88.3216 246.359L88.3236 234.111ZM111.308 244.927L91.8596 233.702L91.8576 253.299L111.306 264.525L111.308 244.927ZM90.0916 230.232L79.4836 224.109L79.4846 216.76L90.0926 222.883L90.0916 230.232Z" fill="#8ED2F4"/>
<path id="Fill 17" fill-rule="evenodd" clip-rule="evenodd" d="M86.5547 237.989L83.0187 235.948V233.499L86.5547 235.54V237.989Z" fill="white"/>
<path id="Fill 19" fill-rule="evenodd" clip-rule="evenodd" d="M98.9312 240.233L97.1632 239.212L97.1612 256.36L98.9292 257.381L98.9312 240.233Z" fill="#90D98B"/>
<path id="Fill 21" fill-rule="evenodd" clip-rule="evenodd" d="M107.771 252.685L106.002 254.114L104.235 250.644L102.467 252.073L102.466 254.523L104.234 255.543V260.442L107.77 262.483L107.771 257.584L109.539 258.605V256.155L107.771 252.685Z" fill="#2B7DA5"/>
<path id="Fill 23" fill-rule="evenodd" clip-rule="evenodd" d="M100.699 243.703L98.0468 244.622L95.3948 240.641L93.6268 242.071V244.52L95.3948 245.541L95.3938 252.89L100.698 255.952L100.699 248.602L102.467 249.623V247.173L100.699 243.703Z" fill="#2B7DA5"/>
<path id="Fill 25" fill-rule="evenodd" clip-rule="evenodd" d="M114.839 220.014H110.99L79.1162 201.579L75.9484 197.555L109.538 178.157L149.559 199.963L146.12 204.387L118.954 220.014H114.839Z" fill="#38C6B1"/>
<path id="Fill 27" fill-rule="evenodd" clip-rule="evenodd" d="M114.846 224.921L75.9502 202.47V197.571L114.846 220.022L116.361 222.112L114.846 224.921Z" fill="#32BBAB"/>
<path id="Fill 29" opacity="0.1" fill-rule="evenodd" clip-rule="evenodd" d="M113.073 267.994L77.7163 223.088L77.7133 247.584L113.073 267.994ZM113.078 223.9L77.7183 203.491L77.7173 208.39L113.077 231.249L113.078 223.9ZM111.308 239.905L79.4843 219.331L79.4853 216.759L111.308 235.128V239.905Z" fill="black"/>
<path id="Fill 31" fill-rule="evenodd" clip-rule="evenodd" d="M72.1788 230.846L70.4108 229.825L70.4088 249.423L72.1768 250.443L72.1788 230.846Z" fill="#E0B475"/>
<path id="Fill 37" fill-rule="evenodd" clip-rule="evenodd" d="M133.244 251.003C133.244 254.455 130.446 257.253 126.994 257.253C123.542 257.253 120.744 254.455 120.744 251.003C120.744 247.551 123.542 244.753 126.994 244.753C130.446 244.753 133.244 247.551 133.244 251.003" fill="#90D98B"/>
<path id="Fill 39" fill-rule="evenodd" clip-rule="evenodd" d="M79.7437 226.003C79.7437 230.836 75.8267 234.753 70.9937 234.753C66.1607 234.753 62.2437 230.836 62.2437 226.003C62.2437 221.17 66.1607 217.253 70.9937 217.253C75.8267 217.253 79.7437 221.17 79.7437 226.003" fill="#90D98B"/>
<path id="Fill 41" fill-rule="evenodd" clip-rule="evenodd" d="M149.559 204.882L114.841 224.921L114.84 220.022L149.559 199.963V204.882Z" fill="#31AD9B"/>
<path id="Fill 43" fill-rule="evenodd" clip-rule="evenodd" d="M171.93 161.505C171.93 164.738 170.02 166.282 167.686 164.935L105.453 129.014C103.119 127.667 101.21 123.919 101.21 120.685L101.217 58.9535C101.218 55.7205 103.127 54.1765 105.461 55.5235L167.695 91.4445C170.028 92.7925 171.937 96.5395 171.937 99.7735L171.93 161.505Z" fill="#D0E9F5"/>
<path id="Fill 45" fill-rule="evenodd" clip-rule="evenodd" d="M89.1841 148.041C88.7931 147.815 88.4771 147.194 88.4771 146.653L88.4941 0.653597C88.4941 0.111597 88.8101 -0.143402 89.2011 0.0815975C89.5911 0.307597 89.9081 0.928597 89.9081 1.4696L89.8921 147.469C89.8921 148.011 89.5751 148.267 89.1841 148.041" fill="#E1E5E5"/>
<path id="Fill 48" fill-rule="evenodd" clip-rule="evenodd" d="M96.2701 29.6403C96.2701 35.0523 93.1031 37.6113 89.1971 35.3563C85.2911 33.1023 82.1251 26.8883 82.1261 21.4763C82.1261 16.0643 85.2931 13.5053 89.1991 15.7593C93.1051 18.0143 96.2701 24.2283 96.2701 29.6403" fill="#E1E5E5"/>
<path id="Fill 50" fill-rule="evenodd" clip-rule="evenodd" d="M154.252 131.702L152.838 130.886L152.836 140.684L154.251 141.501L154.252 131.702Z" fill="#E0B475"/>
<path id="Fill 52" fill-rule="evenodd" clip-rule="evenodd" d="M157.082 130.396C157.082 133.102 155.499 134.381 153.545 133.254C151.593 132.127 150.01 129.02 150.01 126.314C150.01 123.608 151.594 122.329 153.547 123.456C155.499 124.583 157.082 127.69 157.082 130.396" fill="#90D98B"/>
<path id="Fill 54" fill-rule="evenodd" clip-rule="evenodd" d="M151.423 137.908L123.135 121.58L123.139 86.3053L151.427 102.633L151.423 137.908Z" fill="#F9EDD4"/>
<path id="Fill 58" fill-rule="evenodd" clip-rule="evenodd" d="M124.549 122.397L124.551 104.759L133.037 109.658L133.035 127.295L124.549 122.397Z" fill="#38C6B1"/>
<path id="Fill 60" fill-rule="evenodd" clip-rule="evenodd" d="M130.207 123.703L127.378 122.07V120.111L130.207 121.744V123.703Z" fill="#E0B475"/>
<path id="Fill 62" fill-rule="evenodd" clip-rule="evenodd" d="M150.011 111.616L142.939 107.534L142.938 113.413L150.011 117.495V111.616ZM141.525 106.718L134.453 102.636L134.452 108.515L141.524 112.596L141.525 106.718ZM131.623 110.802L125.965 107.536L125.964 117.334L131.622 120.6L131.623 110.802ZM150.01 119.455L134.452 110.474L134.45 126.152L150.009 135.133L150.01 119.455ZM133.038 107.699L124.552 102.8V96.9208L133.038 101.819V107.699Z" fill="#8ED2F4"/>
<path id="Fill 64" fill-rule="evenodd" clip-rule="evenodd" d="M130.208 113.904L127.379 112.271L127.38 110.311L130.208 111.944V113.904Z" fill="white"/>
<path id="Fill 66" fill-rule="evenodd" clip-rule="evenodd" d="M140.109 115.699L138.694 114.883L138.693 128.601L140.108 129.417L140.109 115.699Z" fill="#90D98B"/>
<path id="Fill 68" fill-rule="evenodd" clip-rule="evenodd" d="M147.181 125.661L145.766 126.804L144.352 124.028L142.938 125.171L142.937 127.131L144.352 127.948L144.351 131.867L147.18 133.5L147.181 129.58L148.595 130.397V128.437L147.181 125.661Z" fill="#2B7DA5"/>
<path id="Fill 70" fill-rule="evenodd" clip-rule="evenodd" d="M141.523 118.476L139.401 119.211L137.28 116.027L135.865 117.17V119.13L137.279 119.946V125.826L141.522 128.274L141.523 122.395L142.937 123.212L142.938 121.252L141.523 118.476Z" fill="#2B7DA5"/>
<path id="Fill 72" fill-rule="evenodd" clip-rule="evenodd" d="M152.841 103.45L121.724 85.4898L121.725 81.5698L152.841 99.5308V103.45Z" fill="#32BBAB"/>
<path id="Fill 74" opacity="0.1" fill-rule="evenodd" clip-rule="evenodd" d="M151.423 137.908L123.137 101.983L123.135 121.58L151.423 137.908ZM151.427 102.633L123.139 86.3053V90.2253L151.426 108.512L151.427 102.633ZM150.011 115.535L124.552 98.8803V96.9203L150.011 111.616V115.535Z" fill="black"/>
<path id="Fill 76" fill-rule="evenodd" clip-rule="evenodd" d="M120.308 108.19L118.893 107.374L118.891 123.051L120.306 123.868L120.308 108.19Z" fill="#E0B475"/>
<path id="Fill 78" fill-rule="evenodd" clip-rule="evenodd" d="M124.551 107.699C124.551 111.487 122.334 113.279 119.6 111.7C116.866 110.122 114.65 105.772 114.651 101.984C114.651 98.1963 116.867 96.4043 119.602 97.9823C122.336 99.5603 124.551 103.91 124.551 107.699" fill="#90D98B"/>
<path id="Fill 83" fill-rule="evenodd" clip-rule="evenodd" d="M161.319 180.408C161.319 180.832 161.08 181.041 160.789 180.873L160.51 180.712C160.766 180.924 160.965 181.359 160.965 181.746C160.965 182.17 160.727 182.379 160.435 182.211L160.319 182.144C160.315 182.167 160.31 182.189 160.305 182.211C160.486 182.439 160.611 182.777 160.611 183.084C160.611 183.508 160.373 183.718 160.081 183.549L159.728 183.345C159.689 183.323 159.652 183.294 159.615 183.262C158.236 182.655 157.133 181.679 156.368 180.892L156.369 175.751C157.074 176.158 157.048 175.552 157.516 175.144C157.955 174.763 158.244 174.681 158.244 173.751C158.245 173.082 158.848 173.389 159.112 174.049C159.611 175.299 158.406 176.402 159.567 177.072C159.614 177.099 159.658 177.131 159.701 177.165C159.711 177.169 159.719 177.171 159.728 177.177L160.789 177.789C161.081 177.957 161.319 178.442 161.319 178.866C161.319 179.29 161.081 179.499 160.789 179.331C161.081 179.499 161.319 179.984 161.319 180.408V180.408ZM155.661 180.998C155.661 181.281 155.502 181.42 155.307 181.308L154.423 180.798C154.326 180.741 154.247 180.58 154.247 180.438V175.085C154.247 174.943 154.327 174.874 154.424 174.93L155.308 175.44C155.503 175.552 155.662 175.875 155.662 176.158L155.661 180.998ZM157.784 168.038C153.879 165.784 150.712 168.344 150.711 173.755C150.711 179.167 153.877 185.381 157.782 187.636C161.688 189.89 164.855 187.331 164.855 181.919C164.856 176.508 161.69 170.293 157.784 168.038V168.038Z" fill="#32BBAB"/>
<path id="Fill 85" fill-rule="evenodd" clip-rule="evenodd" d="M129.508 46.8658L101.22 30.5378C100.634 30.1988 100.159 29.2668 100.16 28.4558C100.16 27.6438 100.634 27.2598 101.22 27.5978L129.508 43.9258C130.094 44.2638 130.569 45.1968 130.569 46.0078C130.569 46.8198 130.094 47.2038 129.508 46.8658" fill="#1A4A44"/>
<path id="Fill 87" fill-rule="evenodd" clip-rule="evenodd" d="M138.702 58.0514L101.22 36.4174C100.83 36.1914 100.513 35.5704 100.513 35.0294C100.513 34.4874 100.83 34.2314 101.221 34.4574L138.702 56.0914C139.093 56.3174 139.409 56.9384 139.409 57.4794C139.409 58.0214 139.092 58.2764 138.702 58.0514" fill="#1A4A44"/>
<path id="Fill 89" fill-rule="evenodd" clip-rule="evenodd" d="M133.385 166.694L117.119 157.305C116.533 156.967 116.059 156.035 116.059 155.223C116.059 154.412 116.534 154.027 117.12 154.366L133.385 163.754C133.971 164.092 134.446 165.025 134.446 165.837C134.446 166.648 133.971 167.032 133.385 166.694" fill="#E0B475"/>
<path id="Fill 91" fill-rule="evenodd" clip-rule="evenodd" d="M112.523 150.243V152.202C112.523 152.339 112.505 152.458 112.48 152.57C112.277 154.804 111.338 155.591 111.337 157.891C111.337 159.848 110.252 159.222 108.279 158.082C106.305 156.943 105.22 156.317 105.22 154.359C105.22 154.225 105.205 154.097 105.199 153.965C104.507 152.008 103.673 151.775 103.064 148.824C102.681 146.972 102.319 145.128 101.432 143.338C100.794 142.051 101.635 141.245 102.489 142.003C103.242 142.672 103.703 143.613 104.037 144.543L104.038 137.506C104.038 136.697 104.515 136.311 105.099 136.648C105.682 136.985 106.159 137.922 106.159 138.73V143.63C106.159 142.821 106.636 142.435 107.22 142.772C107.803 143.109 108.28 144.046 108.28 144.854V146.814C108.28 146.006 108.757 145.619 109.341 145.956C109.924 146.293 110.402 147.23 110.401 148.038V148.547C110.422 148.559 110.442 148.572 110.462 148.584C110.605 148.088 110.998 147.893 111.462 148.161C112.046 148.497 112.523 149.434 112.523 150.243" fill="#E0B475"/>
<path id="Fill 93" fill-rule="evenodd" clip-rule="evenodd" d="M169.973 184.211C169.973 184.073 169.977 183.928 169.984 183.773C169.991 183.618 170.002 183.461 170.016 183.3L168.382 185.526L169.973 186.444V184.211ZM171.119 187.106L171.755 187.473V188.497C171.755 188.586 171.733 188.652 171.689 188.693C171.645 188.735 171.582 188.732 171.5 188.685L171.119 188.464V190.434L169.973 189.773V187.803L167.487 186.368C167.404 186.32 167.33 186.242 167.264 186.133C167.197 186.024 167.156 185.912 167.139 185.797L167.003 184.819L169.863 181.143L171.119 181.868V187.106Z" fill="#32BBAB"/>
<path id="Fill 95" fill-rule="evenodd" clip-rule="evenodd" d="M171.94 74.297C171.94 75.914 170.985 76.685 169.818 76.012L162.746 71.93C161.579 71.256 160.625 69.382 160.625 67.766L160.626 59.927C160.626 58.31 161.581 57.538 162.748 58.212L169.82 62.294C170.987 62.967 171.941 64.841 171.941 66.458L171.94 74.297Z" fill="#7CB8D6"/>
<path id="Fill 97" fill-rule="evenodd" clip-rule="evenodd" d="M168.493 59.1119L166.992 56.1639L166.99 68.4999C166.99 69.0389 166.672 69.2969 166.283 69.0719C165.894 68.8469 165.576 68.2229 165.576 67.6839L165.577 55.3519L164.078 56.5639C163.803 56.7859 163.352 56.5259 163.078 55.9869C162.803 55.4459 162.803 54.8229 163.078 54.6009L165.786 52.4129C165.854 52.3559 165.934 52.3309 166.02 52.3329C166.19 52.3349 166.383 52.4459 166.553 52.6399C166.638 52.7369 166.717 52.8539 166.786 52.9899L169.493 58.3039C169.768 58.8429 169.768 59.4669 169.493 59.6889C169.218 59.9119 168.768 59.6519 168.493 59.1119" fill="#2B7DA5"/>
<path id="Fill 1_2" fill-rule="evenodd" clip-rule="evenodd" d="M304.804 316.505C304.804 319.738 302.894 321.282 300.56 319.935L238.326 284.014C235.993 282.667 234.084 278.919 234.084 275.686L234.091 213.954C234.091 210.721 236.001 209.177 238.335 210.525L300.569 246.445C302.903 247.793 304.812 251.541 304.811 254.774L304.804 316.505Z" fill="#E1E5E5"/>
<path id="Fill 4" fill-rule="evenodd" clip-rule="evenodd" d="M222.058 303.041C221.667 302.816 221.351 302.195 221.351 301.653L221.368 155.654C221.368 155.112 221.684 154.857 222.075 155.083C222.465 155.308 222.782 155.929 222.782 156.471L222.766 302.47C222.766 303.011 222.449 303.267 222.058 303.041" fill="#E1E5E5"/>
<path id="Fill 6" fill-rule="evenodd" clip-rule="evenodd" d="M229.144 184.641C229.144 190.053 225.977 192.612 222.071 190.358C218.165 188.103 214.999 181.889 215 176.477C215 171.066 218.167 168.506 222.073 170.761C225.979 173.015 229.144 179.229 229.144 184.641" fill="#E1E5E5"/>
<path id="Fill 12" fill-rule="evenodd" clip-rule="evenodd" d="M294.194 335.408C294.194 335.832 293.955 336.041 293.663 335.873L293.384 335.712C293.64 335.924 293.84 336.359 293.84 336.746C293.84 337.17 293.601 337.38 293.309 337.211L293.194 337.144C293.189 337.167 293.184 337.19 293.18 337.212C293.36 337.439 293.486 337.777 293.486 338.084C293.486 338.509 293.248 338.718 292.956 338.549L292.602 338.345C292.563 338.323 292.526 338.295 292.49 338.262C291.111 337.655 290.007 336.679 289.243 335.892L289.244 330.752C289.949 331.158 289.923 330.552 290.39 330.145C290.829 329.763 291.119 329.682 291.119 328.751C291.119 328.082 291.723 328.389 291.986 329.05C292.485 330.299 291.281 331.402 292.441 332.072C292.489 332.099 292.533 332.132 292.576 332.165C292.585 332.169 292.593 332.171 292.603 332.177L293.664 332.789C293.956 332.957 294.194 333.442 294.194 333.866C294.194 334.29 293.955 334.499 293.664 334.331C293.955 334.499 294.194 334.984 294.194 335.408V335.408ZM288.536 335.998C288.536 336.281 288.377 336.42 288.182 336.308L287.298 335.798C287.201 335.741 287.121 335.58 287.121 335.439L287.122 330.085C287.122 329.944 287.202 329.874 287.298 329.93L288.182 330.44C288.378 330.553 288.536 330.876 288.536 331.158V335.998ZM290.659 323.039C286.754 320.784 283.587 323.344 283.586 328.755C283.586 334.167 286.751 340.382 290.657 342.636C294.562 344.89 297.729 342.331 297.73 336.919C297.73 331.508 294.564 325.293 290.659 323.039V323.039Z" fill="#32BBAB"/>
<path id="Fill 14" fill-rule="evenodd" clip-rule="evenodd" d="M269.455 205.948L234.095 185.538C233.509 185.2 233.034 184.267 233.034 183.456C233.034 182.645 233.51 182.261 234.096 182.598L269.455 203.009C270.041 203.346 270.516 204.279 270.516 205.091C270.516 205.902 270.041 206.286 269.455 205.948" fill="#1A4A44"/>
<path id="Fill 16" fill-rule="evenodd" clip-rule="evenodd" d="M264.503 208.97L234.094 191.418C233.703 191.192 233.387 190.572 233.387 190.03C233.387 189.488 233.703 189.233 234.094 189.458L264.503 207.011C264.894 207.236 265.21 207.857 265.21 208.399C265.21 208.94 264.894 209.196 264.503 208.97" fill="#1A4A44"/>
<path id="Fill 18" fill-rule="evenodd" clip-rule="evenodd" d="M264.844 320.878L252.822 313.939C252.236 313.601 251.761 312.668 251.761 311.857C251.761 311.045 252.237 310.661 252.823 310.999L264.845 317.939C265.431 318.277 265.906 319.209 265.906 320.021C265.906 320.832 265.43 321.216 264.844 320.878" fill="#1A4A44"/>
<path id="Fill 20" fill-rule="evenodd" clip-rule="evenodd" d="M288.013 260.757L284.713 257.004L256.993 241.164H254.068L254.067 250.963L288.012 270.556L288.013 260.757ZM288.009 296.032L254.064 276.439L254.066 260.761L288.011 280.354L288.009 296.032Z" fill="#1E5750"/>
<path id="Path" fill-rule="evenodd" clip-rule="evenodd" d="M266.795 268.109L275.282 273.007L275.28 288.685L266.794 283.786L266.795 268.109Z" fill="#1A4A44"/>
<path id="Fill 22" fill-rule="evenodd" clip-rule="evenodd" d="M275.024 257.179C274.439 255.703 272.885 253.985 271.041 252.92C269.196 251.855 267.642 251.779 267.057 252.581L263.968 250.798L265.382 253.574L267.057 254.54C267.641 256.017 269.195 257.735 271.04 258.8C272.884 259.864 274.439 259.941 275.024 259.139L276.698 260.105L278.113 258.962L275.024 257.179Z" fill="#32BBAB"/>
<path id="Fill 24" fill-rule="evenodd" clip-rule="evenodd" d="M285.182 282.641L276.696 277.743L276.695 285.582L285.181 290.48L285.182 282.641ZM265.38 271.212L256.894 266.312L256.893 274.152L265.379 279.05L265.38 271.212ZM273.867 281.989L268.208 278.723L268.209 268.924L273.868 272.191L273.867 281.989Z" fill="#8ED2F4"/>
<path id="Fill 26" fill-rule="evenodd" clip-rule="evenodd" d="M285.182 286.56V282.641L281.199 280.342C281.783 282.957 283.336 285.496 285.182 286.56M276.695 281.662L276.696 277.743L280.679 280.041C280.094 281.982 278.54 282.727 276.695 281.662M265.38 275.131V271.211L261.397 268.912C261.982 271.528 263.536 274.066 265.38 275.131M256.894 270.232V266.313L260.877 268.612C260.292 270.553 258.739 271.297 256.894 270.232" fill="white"/>
<path id="Fill 28" fill-rule="evenodd" clip-rule="evenodd" d="M285.182 278.721L276.696 273.823V277.742L285.182 282.64V278.721ZM286.595 291.296L275.281 284.765L275.28 286.724L286.595 293.256V291.296ZM265.381 267.292L256.895 262.393L256.894 266.313L265.38 271.211L265.381 267.292ZM266.793 281.826L255.479 275.295V273.335L266.794 279.867L266.793 281.826Z" fill="#277068"/>
<path id="Fill 30" opacity="0.1" fill-rule="evenodd" clip-rule="evenodd" d="M288.01 286.233L254.065 264.68L254.066 260.76L288.011 280.354L288.01 286.233Z" fill="black"/>
<path id="Fill 32" fill-rule="evenodd" clip-rule="evenodd" d="M292.254 286.722L290.839 285.906V291.785L292.253 292.601L292.254 286.722ZM249.821 266.15L246.992 264.517L246.993 258.638L249.822 260.271L249.821 266.15Z" fill="#E0B475"/>
<path id="Fill 34" fill-rule="evenodd" clip-rule="evenodd" d="M291.548 274.556C290.841 274.148 288.718 280.824 288.718 284.681C288.718 286.847 289.984 289.332 291.546 290.234C293.109 291.136 294.375 290.112 294.375 287.947C294.376 284.089 292.255 274.964 291.548 274.556M252.652 259.944C252.651 263.191 250.751 264.727 248.407 263.374C246.064 262.021 244.164 258.293 244.164 255.046C244.165 249.259 247.349 239.245 248.41 239.858C249.471 240.47 252.652 254.157 252.652 259.944" fill="#90D98B"/>
<path id="Fill 36" fill-rule="evenodd" clip-rule="evenodd" d="M294.375 293.827L288.717 290.561L290.131 297.257L292.959 298.889L294.375 293.827ZM250.527 274.398L246.284 271.949L244.871 263.293L251.942 267.375L250.527 274.398Z" fill="#919998"/>
<path id="Fill 38" fill-rule="evenodd" clip-rule="evenodd" d="M289.425 281.17L252.652 259.944V256.024L256.222 256.662L286.589 273.252L289.426 277.251L289.425 281.17Z" fill="#D88B99"/>
<path id="Fill 40" opacity="0.1" fill-rule="evenodd" clip-rule="evenodd" d="M288.013 264.676L254.068 243.123V241.163L288.013 260.757V264.676Z" fill="black"/>
<path id="Fill 42" fill-rule="evenodd" clip-rule="evenodd" d="M289.428 257.654L252.654 236.428V240.347L289.428 261.573V257.654Z" fill="#1E5750"/>
<path id="Path_2" fill-rule="evenodd" clip-rule="evenodd" d="M289.426 277.251L252.652 256.025L254.067 250.963L288.012 270.556L289.426 277.251Z" fill="#F09CAB"/>
<path id="Fill 44" fill-rule="evenodd" clip-rule="evenodd" d="M236.911 298.176L234.436 296.747C234.242 296.635 234.083 296.763 234.083 297.033L234.081 307.812C234.081 308.081 234.24 308.393 234.434 308.506L236.91 309.934C237.299 310.159 237.617 309.902 237.617 309.363L237.618 299.564C237.618 299.025 237.301 298.401 236.911 298.176M248.226 308.136C248.226 308.945 247.749 309.331 247.165 308.994L246.608 308.673C246.607 308.679 246.607 308.686 246.606 308.693C247.12 309.091 247.518 309.93 247.518 310.668C247.518 311.476 247.041 311.862 246.458 311.526L246.226 311.392C246.218 311.435 246.208 311.477 246.199 311.519C246.558 311.963 246.811 312.614 246.811 313.199C246.811 314.008 246.334 314.394 245.75 314.057L245.043 313.649C244.966 313.604 244.89 313.548 244.818 313.484C242.06 312.252 239.854 310.332 238.325 308.791L238.326 298.992C239.736 299.806 239.682 298.647 240.62 297.897C241.498 297.194 242.076 297.054 242.076 295.281C242.077 294.006 243.284 294.624 243.811 295.896C244.808 298.304 242.4 300.343 244.722 301.683C244.816 301.737 244.904 301.801 244.991 301.867C245.009 301.876 245.026 301.88 245.044 301.89L247.166 303.115C247.749 303.452 248.226 304.388 248.226 305.197C248.226 306.006 247.749 306.391 247.166 306.054C247.749 306.391 248.226 307.328 248.226 308.136" fill="#B5BFBE"/>
<path id="Fill 46" fill-rule="evenodd" clip-rule="evenodd" d="M302.423 339.507C302.569 339.592 302.69 339.628 302.783 339.615C302.876 339.603 302.949 339.557 303.004 339.478C303.058 339.399 303.094 339.295 303.114 339.166C303.134 339.036 303.144 338.897 303.144 338.747C303.144 338.614 303.131 338.478 303.106 338.337C303.08 338.197 303.038 338.063 302.981 337.932C302.922 337.803 302.848 337.683 302.756 337.571C302.664 337.459 302.553 337.365 302.423 337.29C302.289 337.213 302.178 337.178 302.087 337.185C301.997 337.192 301.922 337.226 301.865 337.289C301.807 337.352 301.765 337.438 301.739 337.548C301.714 337.66 301.701 337.781 301.701 337.915C301.701 338.064 301.711 338.214 301.731 338.367C301.751 338.519 301.787 338.666 301.841 338.807C301.895 338.948 301.968 339.078 302.062 339.198C302.154 339.319 302.275 339.422 302.423 339.507M302.422 343.34C302.569 343.425 302.696 343.467 302.804 343.466C302.911 343.466 303 343.432 303.069 343.363C303.139 343.296 303.19 343.198 303.222 343.07C303.255 342.942 303.271 342.793 303.271 342.624C303.271 342.441 303.257 342.263 303.229 342.095C303.2 341.925 303.153 341.768 303.088 341.623C303.024 341.478 302.937 341.342 302.827 341.219C302.719 341.095 302.583 340.987 302.423 340.895C302.261 340.801 302.125 340.753 302.017 340.752C301.908 340.749 301.821 340.784 301.756 340.854C301.692 340.924 301.644 341.028 301.615 341.164C301.587 341.3 301.573 341.461 301.573 341.645C301.573 341.813 301.59 341.981 301.622 342.147C301.654 342.312 301.705 342.468 301.776 342.617C301.844 342.765 301.932 342.901 302.037 343.024C302.144 343.148 302.272 343.254 302.422 343.34M302.422 344.715C302.094 344.526 301.794 344.293 301.523 344.014C301.251 343.736 301.018 343.43 300.824 343.096C300.631 342.764 300.481 342.409 300.374 342.035C300.269 341.66 300.216 341.28 300.216 340.897C300.216 340.665 300.235 340.458 300.274 340.274C300.312 340.09 300.372 339.937 300.455 339.815C300.539 339.693 300.647 339.603 300.778 339.546C300.909 339.488 301.069 339.468 301.255 339.486C300.973 339.146 300.763 338.779 300.626 338.388C300.488 337.994 300.42 337.579 300.42 337.14C300.42 336.807 300.469 336.526 300.569 336.299C300.667 336.072 300.806 335.906 300.985 335.801C301.162 335.696 301.374 335.655 301.618 335.676C301.863 335.698 302.132 335.794 302.423 335.962C302.714 336.13 302.982 336.344 303.227 336.605C303.472 336.865 303.683 337.151 303.86 337.462C304.039 337.772 304.178 338.098 304.277 338.44C304.376 338.781 304.425 339.118 304.425 339.451C304.425 339.891 304.356 340.227 304.217 340.461C304.079 340.694 303.869 340.818 303.589 340.833C303.773 341.029 303.931 341.233 304.063 341.441C304.194 341.65 304.301 341.864 304.385 342.083C304.468 342.301 304.529 342.525 304.569 342.754C304.609 342.983 304.628 343.212 304.628 343.444C304.628 343.827 304.575 344.146 304.469 344.399C304.362 344.65 304.213 344.832 304.02 344.941C303.825 345.051 303.593 345.088 303.321 345.053C303.05 345.018 302.75 344.905 302.422 344.715" fill="#32BBAB"/>
<path id="Fill 1_3" fill-rule="evenodd" clip-rule="evenodd" d="M273.329 359.498L229.896 382.99L228.015 384.992L228.898 408.302L230.902 428.083L273.334 403.591L273.329 359.498Z" fill="#1A4A44"/>
<path id="Fill 2_2" fill-rule="evenodd" clip-rule="evenodd" d="M184.462 401.078L178.272 404.364L177.389 395.361L184.847 391.057L184.462 401.078Z" fill="#919998"/>
<path id="Fill 3" fill-rule="evenodd" clip-rule="evenodd" d="M178.462 396.078L172.968 401.303L171.389 390.361L180.229 385.259L178.462 396.078Z" fill="#919998"/>
<path id="Fill 4_2" fill-rule="evenodd" clip-rule="evenodd" d="M240.17 417.306L233.776 420.244L234.866 428.717L238.402 425.676L240.17 417.306Z" fill="#919998"/>
<path id="Fill 5_2" fill-rule="evenodd" clip-rule="evenodd" d="M237.098 424.388L238.866 430.717L242.403 428.676L244.17 420.306L237.098 424.388Z" fill="#919998"/>
<path id="Fill 6_2" fill-rule="evenodd" clip-rule="evenodd" d="M229.125 329L186.698 353.502L189.75 356.823L227.358 378.76L232.659 382.045L237.49 379.689L270.131 360.434L275.032 355.657L229.125 329Z" fill="#23635C"/>
<path id="Fill 7_2" fill-rule="evenodd" clip-rule="evenodd" d="M230.896 383.99L228.411 380.002L195.811 360.624L188.464 359.498L188.463 373.746L230.895 398.238L230.896 383.99ZM230.891 428.084L188.459 403.592L188.462 375.994L230.894 399.486L230.891 428.084Z" fill="#1E5750"/>
<path id="Path_3" fill-rule="evenodd" clip-rule="evenodd" d="M204.375 393.179L214.983 399.302L214.98 418.899L204.372 412.776L204.375 393.179Z" fill="#1A4A44"/>
<path id="Fill 8" fill-rule="evenodd" clip-rule="evenodd" d="M214.66 379.517C213.93 377.671 211.987 375.524 209.681 374.193C207.375 372.862 205.432 372.767 204.702 373.769L200.841 371.54L202.609 375.011L204.702 376.219C205.432 378.064 207.374 380.211 209.68 381.542C211.986 382.873 213.929 382.969 214.66 381.967L216.752 383.175L218.521 381.746L214.66 379.517Z" fill="#32BBAB"/>
<path id="Fill 10" fill-rule="evenodd" clip-rule="evenodd" d="M227.358 411.344L216.75 405.221L216.749 415.02L227.357 421.143L227.358 411.344ZM202.606 397.057L191.998 390.934L191.997 400.733L202.605 406.856L202.606 397.057ZM213.213 410.53L206.141 406.447L206.142 394.199L213.214 398.281L213.213 410.53Z" fill="#8ED2F4"/>
<path id="Fill 12_2" fill-rule="evenodd" clip-rule="evenodd" d="M243.849 421.327L236.777 417.245L238.544 425.614L242.08 427.655L243.849 421.327Z" fill="#919998"/>
<path id="Fill 14_2" fill-rule="evenodd" clip-rule="evenodd" d="M239.197 415.447L237.429 414.426L237.428 421.775L239.197 422.796V415.447Z" fill="#E0B475"/>
<path id="Fill 16_2" fill-rule="evenodd" clip-rule="evenodd" d="M227.357 416.244L227.358 411.345L222.378 408.471C223.109 411.74 225.051 414.913 227.357 416.244M216.749 410.121L216.75 405.222L221.729 408.096C220.998 410.521 219.055 411.452 216.749 410.121M202.605 401.957L202.606 397.058L197.627 394.184C198.357 397.453 200.299 400.626 202.605 401.957M191.997 395.834L191.998 390.935L196.977 393.809C196.246 396.235 194.303 397.165 191.997 395.834" fill="white"/>
<path id="Fill 18_2" fill-rule="evenodd" clip-rule="evenodd" d="M239.197 423.374L233.776 420.245L234.866 428.718L239.08 430.655L239.197 423.374Z" fill="#A7AFAE"/>
<path id="Fill 20_2" fill-rule="evenodd" clip-rule="evenodd" d="M227.358 406.445L216.75 400.322L216.749 405.221L227.358 411.344V406.445ZM229.125 422.164L214.98 414V416.449L229.124 424.613L229.125 422.164ZM202.606 392.158L191.998 386.035L191.997 390.935L202.606 397.058V392.158ZM204.372 410.327L190.228 402.162V399.713L204.372 407.877V410.327Z" fill="#277068"/>
<path id="Fill 22_2" opacity="0.1" fill-rule="evenodd" clip-rule="evenodd" d="M230.894 415.835L188.462 388.893L188.463 383.994L230.895 408.485L230.894 415.835Z" fill="black"/>
<path id="Fill 24_2" fill-rule="evenodd" clip-rule="evenodd" d="M183.46 400.055L178.156 396.993L176.389 386.175L185.229 391.277L183.46 400.055Z" fill="#919998"/>
<path id="Fill 26_2" fill-rule="evenodd" clip-rule="evenodd" d="M179.157 392.731L175.621 390.69L175.622 383.341L179.158 385.382L179.157 392.731Z" fill="#E0B475"/>
<path id="Fill 28_2" fill-rule="evenodd" clip-rule="evenodd" d="M178.272 404.364L172.968 401.302L171.389 390.361L178.555 394.688L178.272 404.364Z" fill="#A7AFAE"/>
<path id="Fill 30_2" fill-rule="evenodd" clip-rule="evenodd" d="M238.75 398.635C237.5 398.635 233.75 408.713 233.75 413.635C233.75 416.397 235.988 418.635 238.75 418.635C241.512 418.635 243.75 416.397 243.75 413.635C243.75 408.713 240 398.635 238.75 398.635" fill="#90D98B"/>
<path id="Fill 32_2" fill-rule="evenodd" clip-rule="evenodd" d="M229.125 407.464L182.601 380.61V375.711L189.991 376.977L226.797 397.774L229.125 402.565V407.464Z" fill="#D88B99"/>
<path id="Fill 34_2" opacity="0.1" fill-rule="evenodd" clip-rule="evenodd" d="M230.896 388.889L188.464 361.948V359.498L230.896 383.99V388.889Z" fill="black"/>
<path id="Fill 36_2" fill-rule="evenodd" clip-rule="evenodd" d="M229.125 402.565L182.601 375.711L188.464 371.746L233.286 397.618L229.125 402.565Z" fill="#F09CAB"/>
<path id="Fill 38_2" fill-rule="evenodd" clip-rule="evenodd" d="M232.665 380.111L186.698 353.578L186.697 358.478L232.665 385.01L234.665 381.581L232.665 380.111Z" fill="#1E5750"/>
<path id="Fill 40_2" fill-rule="evenodd" clip-rule="evenodd" d="M185 379.635C185 383.777 181.642 387.135 177.5 387.135C173.358 387.135 170 383.777 170 379.635C170 372.252 175.625 357.135 177.5 357.135C179.375 357.135 185 372.252 185 379.635" fill="#90D98B"/>
<path id="Fill 42_2" fill-rule="evenodd" clip-rule="evenodd" d="M275.032 355.657L232.665 380.111L232.666 385.011L275.032 360.557V355.657Z" fill="#1E5750"/>
</g>
<defs>
<linearGradient id="paint0_linear" x1="-72.5908" y1="404.69" x2="166.894" y2="554.064" gradientUnits="userSpaceOnUse">
<stop stop-color="white"/>
<stop offset="0.26007" stop-color="#E1E6E5"/>
<stop offset="0.680275" stop-color="#E1E6E5"/>
<stop offset="1" stop-color="white"/>
</linearGradient>
</defs>
</svg>
