<svg width="533" height="363" viewBox="0 0 533 363" fill="none" xmlns="http://www.w3.org/2000/svg">
<g id="illus_city">
<path id="Fill 1" fill-rule="evenodd" clip-rule="evenodd" d="M127.625 127.21V150.21L184.193 182.878L188.193 171.372L184.193 159.878L161.856 139.668L127.625 127.21Z" fill="#E1E6E5"/>
<path id="Fill 2" fill-rule="evenodd" clip-rule="evenodd" d="M240.762 127.21V150.21L184.194 182.878V159.878L207.639 136.874L240.762 127.21Z" fill="#D9DEDD"/>
<path id="Fill 3" fill-rule="evenodd" clip-rule="evenodd" d="M240.762 127.21L184.194 159.878L127.625 127.21L184.194 94.5422L240.762 127.21Z" fill="#F7FAFA"/>
<path id="Fill 4" fill-rule="evenodd" clip-rule="evenodd" d="M224.86 48.51V106.91L270.115 133.045L275.115 102.412L270.115 74.645L252.245 58.477L224.86 48.51Z" fill="#E1E6E5"/>
<path id="Fill 5" fill-rule="evenodd" clip-rule="evenodd" d="M315.37 48.51V106.91L270.115 133.045V74.645L288.871 56.241L315.37 48.51Z" fill="#D9DEDD"/>
<path id="Fill 6" fill-rule="evenodd" clip-rule="evenodd" d="M315.37 48.51L270.115 74.645L224.86 48.51L270.115 22.376L315.37 48.51Z" fill="#F7FAFA"/>
<path id="Fill 7" fill-rule="evenodd" clip-rule="evenodd" d="M21.1152 171.372V204.372L52.2272 222.34L57.7272 203.722L52.2272 189.34L38.0002 175.968L21.1152 171.372Z" fill="#E1E6E5"/>
<path id="Fill 8" fill-rule="evenodd" clip-rule="evenodd" d="M52.2275 189.34V222.34L83.3405 204.372L88.8405 190.326L83.3405 171.372L64.8815 176.299L52.2275 189.34Z" fill="#D9DEDD"/>
<path id="Fill 9" fill-rule="evenodd" clip-rule="evenodd" d="M114.453 189.34L117.753 204.984L114.453 222.34L83.3411 204.372V171.372L100.2 175.531L114.453 189.34Z" fill="#E1E6E5"/>
<path id="Fill 10" fill-rule="evenodd" clip-rule="evenodd" d="M145.566 171.372V204.372L114.453 222.34V189.34L128.354 174.579L145.566 171.372Z" fill="#D9DEDD"/>
<path id="Fill 11" fill-rule="evenodd" clip-rule="evenodd" d="M21.1152 171.372L52.2272 189.34L83.3412 171.372L114.453 189.34L145.566 171.372L114.453 153.404L83.3412 135.437L21.1152 171.372Z" fill="#F7FAFA"/>
<path id="Fill 12" fill-rule="evenodd" clip-rule="evenodd" d="M0 313.222L70.711 354.058L494.975 109.045L424.264 68.2101L0 313.222Z" fill="url(#paint0_linear)"/>
<path id="Fill 14" fill-rule="evenodd" clip-rule="evenodd" d="M435.997 82.6839V172.684L471.352 193.101L478.352 125.21L471.352 103.101L457.093 88.1339L435.997 82.6839Z" fill="#F7FAFA"/>
<path id="Fill 15" fill-rule="evenodd" clip-rule="evenodd" d="M471.353 103.101V193.101L519.649 185.627L524.649 113.892L519.649 95.6273L495.577 92.1983L471.353 103.101Z" fill="#E1E6E5"/>
<path id="Fill 16" fill-rule="evenodd" clip-rule="evenodd" d="M520.655 77.684L519.648 95.627V185.627L532.589 157.736V67.736L520.655 77.684Z" fill="#D9DEDD"/>
<path id="Fill 17" fill-rule="evenodd" clip-rule="evenodd" d="M448.938 54.7925L435.997 82.6835L471.353 103.101L519.648 95.6275L532.589 67.7365L497.235 47.3185L448.938 54.7925Z" fill="#F7FAFA"/>
<path id="Fill 18" fill-rule="evenodd" clip-rule="evenodd" d="M344.86 179.51V222.91L390.115 249.045L395.115 223.412L390.115 205.645L372.245 189.477L344.86 179.51Z" fill="#E1E6E5"/>
<path id="Fill 19" fill-rule="evenodd" clip-rule="evenodd" d="M435.37 179.51V222.91L390.115 249.045V205.645L408.871 187.241L435.37 179.51Z" fill="#D9DEDD"/>
<path id="Fill 20" fill-rule="evenodd" clip-rule="evenodd" d="M435.37 179.51L390.115 205.645L344.86 179.51L390.115 153.376L435.37 179.51Z" fill="#F7FAFA"/>
<path id="Fill 21" fill-rule="evenodd" clip-rule="evenodd" d="M248.193 195.21V275.21C248.193 281.122 252.098 287.033 259.909 291.544C275.53 300.565 300.856 300.565 316.477 291.544C324.288 287.033 328.193 281.122 328.193 275.21V195.21H248.193Z" fill="#E1E6E5"/>
<path id="Fill 23" fill-rule="evenodd" clip-rule="evenodd" d="M316.477 211.544C300.856 220.565 275.53 220.565 259.909 211.544C244.288 202.523 244.288 187.897 259.909 178.876C275.53 169.855 300.856 169.855 316.477 178.876C332.098 187.897 332.098 202.523 316.477 211.544" fill="#F7FAFA"/>
<path id="Fill 25" fill-rule="evenodd" clip-rule="evenodd" d="M228.19 321.959L157.48 362.795L129.196 346.461L199.906 305.625L228.19 321.959Z" fill="#E1E6E5"/>
<path id="Fill 28" fill-rule="evenodd" clip-rule="evenodd" d="M129.196 306.461V346.461L157.48 362.795L163.48 339.46L157.48 322.795L145.338 309.628L129.196 306.461Z" fill="#E1E6E5"/>
<path id="Fill 31" fill-rule="evenodd" clip-rule="evenodd" d="M228.19 281.96V321.96L157.48 362.795V322.795L187.527 297.71L228.19 281.96Z" fill="#D9DEDD"/>
<path id="Fill 33" fill-rule="evenodd" clip-rule="evenodd" d="M228.19 281.96L157.48 322.795L129.196 306.461L199.906 265.626L228.19 281.96Z" fill="#F7FAFA"/>
</g>
<defs>
<linearGradient id="paint0_linear" x1="-138.833" y1="88.7305" x2="-138.833" y2="307.965" gradientUnits="userSpaceOnUse">
<stop stop-color="white"/>
<stop offset="0.51199" stop-color="#E1E6E5"/>
<stop offset="1" stop-color="white"/>
</linearGradient>
</defs>
</svg>
