<svg width="200" height="200" viewBox="0 0 200 200" fill="none" xmlns="http://www.w3.org/2000/svg">
<g id="illus_alert">
<path id="Stroke 2" d="M44.8589 88.0186L53.8019 75.5846C55.1539 73.7056 57.4889 71.9716 58.9899 71.7336L64.8639 70.7996C66.3649 70.5606 68.5759 68.6566 69.7769 66.5676L78.9939 50.5396" stroke="#F2584D" stroke-width="3" stroke-linecap="round" stroke-linejoin="round"/>
<path id="Stroke 4" opacity="0.3" d="M80.6772 36.7988L81.1772 36.7987L81.1772 36.7987L80.6772 36.7988ZM80.1771 36.2988L80.1772 36.7988L80.1771 36.2988ZM80.6822 85.7918L80.1822 85.7918L80.1822 85.7918L80.6822 85.7918ZM80.1823 86.2918L80.1822 85.7918L80.1823 86.2918ZM79.6822 85.7919L79.1822 85.7919L79.1822 85.7919L79.6822 85.7919ZM79.6772 36.7989L80.1772 36.7988L80.1772 36.7988L79.6772 36.7989ZM73.6052 40.8808L74.1052 40.8807L74.1052 40.8807L73.6052 40.8808ZM73.1051 40.3808L73.1051 39.8808L73.1051 39.8808L73.1051 40.3808ZM73.6112 89.8728L73.1112 89.8728L73.1112 89.8728L73.6112 89.8728ZM73.1113 90.3728L73.1112 89.8728L73.1113 90.3728ZM72.6112 89.8729L73.1112 89.8728L73.1112 89.8728L72.6112 89.8729ZM72.6052 40.8809L72.1052 40.881L72.1052 40.881L72.6052 40.8809ZM66.5332 44.9628L67.0332 44.9627L67.0332 44.9627L66.5332 44.9628ZM66.0331 44.4628L66.0332 44.9628L66.0331 44.4628ZM66.5382 93.9548L66.0382 93.9548L66.0382 93.9548L66.5382 93.9548ZM66.0383 94.4548L66.0382 93.9548L66.0383 94.4548ZM65.5382 93.9549L65.0382 93.9549L65.0382 93.9549L65.5382 93.9549ZM65.5332 44.9629L66.0332 44.9628L66.0332 44.9628L65.5332 44.9629ZM59.4612 49.0448L59.9612 49.0447L59.9612 49.0447L59.4612 49.0448ZM58.9611 48.5448L58.9611 48.0448L58.9611 48.0448L58.9611 48.5448ZM59.4672 98.0368L58.9672 98.0368L58.9672 98.0368L59.4672 98.0368ZM58.9673 98.5368L58.9672 98.0368L58.9673 98.5368ZM58.4672 98.0369L58.9672 98.0368L58.9672 98.0368L58.4672 98.0369ZM58.4612 49.0449L57.9612 49.045L57.9612 49.045L58.4612 49.0449ZM52.3892 53.1268L52.8892 53.1267L52.8892 53.1267L52.3892 53.1268ZM51.8891 52.6268L51.8891 52.1268L51.8891 52.1268L51.8891 52.6268ZM52.3952 102.119L51.8952 102.119L51.8952 102.119L52.3952 102.119ZM51.8953 102.619L51.8952 102.119L51.8953 102.619ZM51.3952 102.119L51.8952 102.119L51.8952 102.119L51.3952 102.119ZM51.3892 53.1269L50.8892 53.1269L50.8892 53.1269L51.3892 53.1269ZM45.3172 57.2088L45.8172 57.2087L45.8172 57.2087L45.3172 57.2088ZM44.8171 56.7088L44.8171 56.2088L44.8171 56.2088L44.8171 56.7088ZM45.3232 106.201L44.8232 106.201L44.8232 106.201L45.3232 106.201ZM44.8233 106.701L44.8232 106.201L44.8233 106.701ZM44.3232 106.201L44.8232 106.201L44.8232 106.201L44.3232 106.201ZM44.3172 57.2089L43.8172 57.209L43.8172 57.209L44.3172 57.2089ZM81.1772 36.7987C81.1771 36.2464 80.7294 35.7988 80.1771 35.7988L80.1772 36.7988L80.1772 36.7988L81.1772 36.7987ZM81.1822 85.7917L81.1772 36.7987L80.1772 36.7988L80.1822 85.7918L81.1822 85.7917ZM80.1823 86.7918C80.7346 86.7918 81.1823 86.344 81.1822 85.7917L80.1822 85.7918L80.1822 85.7918L80.1823 86.7918ZM79.1822 85.7919C79.1823 86.3442 79.63 86.7919 80.1823 86.7918L80.1822 85.7918L80.1822 85.7918L79.1822 85.7919ZM79.1772 36.7989L79.1822 85.7919L80.1822 85.7918L80.1772 36.7988L79.1772 36.7989ZM80.1771 35.7988C79.6248 35.7989 79.1771 36.2466 79.1772 36.7989L80.1772 36.7988L80.1772 36.7988L80.1771 35.7988ZM74.1052 40.8807C74.1051 40.3284 73.6574 39.8808 73.1051 39.8808L73.1052 40.8808L73.1052 40.8808L74.1052 40.8807ZM74.1112 89.8727L74.1052 40.8807L73.1052 40.8808L73.1112 89.8728L74.1112 89.8727ZM73.1113 90.8728C73.6636 90.8728 74.1113 90.425 74.1112 89.8727L73.1112 89.8728L73.1112 89.8728L73.1113 90.8728ZM72.1112 89.873C72.1113 90.4252 72.559 90.8729 73.1113 90.8728L73.1112 89.8728L73.1112 89.8728L72.1112 89.873ZM72.1052 40.881L72.1112 89.873L73.1112 89.8728L73.1052 40.8808L72.1052 40.881ZM73.1051 39.8808C72.5528 39.8809 72.1051 40.3287 72.1052 40.881L73.1052 40.8808L73.1052 40.8808L73.1051 39.8808ZM67.0332 44.9627C67.0331 44.4104 66.5854 43.9628 66.0331 43.9628L66.0332 44.9628L66.0332 44.9628L67.0332 44.9627ZM67.0382 93.9547L67.0332 44.9627L66.0332 44.9628L66.0382 93.9548L67.0382 93.9547ZM66.0383 94.9548C66.5906 94.9548 67.0383 94.507 67.0382 93.9547L66.0382 93.9548L66.0382 93.9548L66.0383 94.9548ZM65.0382 93.9549C65.0383 94.5072 65.486 94.9549 66.0383 94.9548L66.0382 93.9548L66.0382 93.9548L65.0382 93.9549ZM65.0332 44.9629L65.0382 93.9549L66.0382 93.9548L66.0332 44.9628L65.0332 44.9629ZM66.0331 43.9628C65.4808 43.9629 65.0331 44.4106 65.0332 44.9629L66.0332 44.9628L66.0332 44.9628L66.0331 43.9628ZM59.9612 49.0447C59.9611 48.4924 59.5134 48.0448 58.9611 48.0448L58.9612 49.0448L58.9612 49.0448L59.9612 49.0447ZM59.9672 98.0367L59.9612 49.0447L58.9612 49.0448L58.9672 98.0368L59.9672 98.0367ZM58.9673 99.0368C59.5196 99.0368 59.9673 98.589 59.9672 98.0367L58.9672 98.0368L58.9672 98.0368L58.9673 99.0368ZM57.9672 98.037C57.9673 98.5892 58.415 99.0369 58.9673 99.0368L58.9672 98.0368L58.9672 98.0368L57.9672 98.037ZM57.9612 49.045L57.9672 98.037L58.9672 98.0368L58.9612 49.0448L57.9612 49.045ZM58.9611 48.0448C58.4088 48.0449 57.9611 48.4927 57.9612 49.045L58.9612 49.0448L58.9612 49.0448L58.9611 48.0448ZM52.8892 53.1267C52.8891 52.5744 52.4414 52.1268 51.8891 52.1268L51.8892 53.1268L51.8892 53.1268L52.8892 53.1267ZM52.8952 102.119L52.8892 53.1267L51.8892 53.1268L51.8952 102.119L52.8952 102.119ZM51.8953 103.119C52.4476 103.119 52.8953 102.671 52.8952 102.119L51.8952 102.119L51.8952 102.119L51.8953 103.119ZM50.8952 102.119C50.8953 102.671 51.343 103.119 51.8953 103.119L51.8952 102.119L51.8952 102.119L50.8952 102.119ZM50.8892 53.1269L50.8952 102.119L51.8952 102.119L51.8892 53.1268L50.8892 53.1269ZM51.8891 52.1268C51.3368 52.1269 50.8891 52.5747 50.8892 53.1269L51.8892 53.1268L51.8892 53.1268L51.8891 52.1268ZM45.8172 57.2087C45.8171 56.6564 45.3694 56.2088 44.8171 56.2088L44.8172 57.2088L44.8172 57.2088L45.8172 57.2087ZM45.8232 106.201L45.8172 57.2087L44.8172 57.2088L44.8232 106.201L45.8232 106.201ZM44.8233 107.201C45.3756 107.201 45.8233 106.753 45.8232 106.201L44.8232 106.201L44.8232 106.201L44.8233 107.201ZM43.8232 106.201C43.8233 106.753 44.271 107.201 44.8233 107.201L44.8232 106.201L44.8232 106.201L43.8232 106.201ZM43.8172 57.209L43.8232 106.201L44.8232 106.201L44.8172 57.2088L43.8172 57.209ZM44.8171 56.2088C44.2648 56.2089 43.8171 56.6567 43.8172 57.209L44.8172 57.2088L44.8172 57.2088L44.8171 56.2088Z" fill="#F2584D"/>
<path id="Fill 6" fill-rule="evenodd" clip-rule="evenodd" d="M91.9155 60.1792C88.9195 54.7212 84.0195 57.5492 81.0245 66.4652L69.6595 100.309C66.6655 109.225 69.1165 113.692 75.1065 110.234L97.8435 97.1112C103.833 93.6532 106.283 86.3582 103.288 80.8992L91.9155 60.1792Z" fill="#F2584D"/>
<path id="Fill 8" fill-rule="evenodd" clip-rule="evenodd" d="M85.0005 88.2051L85.9135 74.4581L89.5285 72.3711L87.7445 86.6211L85.0005 88.2051ZM87.3645 90.2961C87.6905 90.5801 87.8545 91.0641 87.8545 91.7481C87.8545 92.5531 87.6395 93.3821 87.2115 94.2311C86.7835 95.0831 86.2785 95.6761 85.6985 96.0111C85.1895 96.3041 84.7725 96.3091 84.4455 96.0251C84.1185 95.7411 83.9555 95.2471 83.9555 94.5421C83.9555 93.7581 84.1725 92.9371 84.6085 92.0821C85.0435 91.2271 85.5525 90.6331 86.1335 90.2971C86.6265 90.0131 87.0365 90.0131 87.3645 90.2961V90.2961Z" fill="#F09CAB"/>
<path id="Fill 10" opacity="0.5" fill-rule="evenodd" clip-rule="evenodd" d="M132.652 160.072C129.541 161.869 124.45 161.869 121.339 160.072L72.5483 131.895C69.4373 130.098 69.4373 127.158 72.5483 125.362L92.3473 113.927C95.4593 112.131 100.549 112.131 103.661 113.927L152.451 142.104C155.563 143.901 155.563 146.841 152.451 148.637L132.652 160.072Z" fill="#F2584D"/>
<path id="Fill 12" opacity="0.6" fill-rule="evenodd" clip-rule="evenodd" d="M112.003 123.568C111.787 122.126 109.588 121.061 107.092 121.189L103.287 121.383L102.917 123.796L102.951 124.023C103.167 125.464 105.365 126.53 107.862 126.402L107.549 126.419C107.658 126.417 107.767 126.414 107.873 126.409C110.393 126.285 112.218 125.009 112.003 123.568" fill="#F09CAB"/>
<path id="Fill 14" opacity="0.8" fill-rule="evenodd" clip-rule="evenodd" d="M102.951 124.023L102.917 123.795L103.581 119.463C103.39 119.961 102.964 120.434 102.309 120.812C100.537 121.835 93.9657 121.937 93.9507 121.937C93.9507 121.937 93.9517 121.925 93.9547 121.903C93.9517 121.915 93.9487 121.925 93.9467 121.937C93.7867 122.946 93.6827 123.942 93.7707 124.5C93.9947 125.935 96.1917 127.002 98.6817 126.878L107.862 126.402C105.366 126.53 103.167 125.464 102.951 124.023" fill="#F09CAB"/>
<path id="Fill 16" fill-rule="evenodd" clip-rule="evenodd" d="M98.0225 119.572C97.4325 119.231 97.4335 118.678 98.0245 118.337C98.6155 117.996 99.5735 117.995 100.164 118.336C100.754 118.676 100.753 119.229 100.162 119.571C99.5695 119.912 98.6125 119.913 98.0225 119.572M103.582 119.464L103.624 119.186C103.845 117.745 102.001 116.475 99.5045 116.35C97.0085 116.226 94.8055 117.294 94.5845 118.735C94.5845 118.735 94.2185 120.262 93.9675 121.802C93.9565 121.888 93.9505 121.937 93.9505 121.937C93.9665 121.937 100.538 121.835 102.31 120.812C102.964 120.434 103.391 119.961 103.582 119.464" fill="#F09CAB"/>
<path id="Fill 18" fill-rule="evenodd" clip-rule="evenodd" d="M125.581 139.654L112.146 131.895C111.365 131.444 111.365 130.713 112.146 130.261C112.927 129.811 114.193 129.811 114.974 130.261L128.409 138.02C129.19 138.471 129.19 139.203 128.409 139.654C127.628 140.105 126.362 140.105 125.581 139.654" fill="#F09CAB"/>
<path id="Fill 20" fill-rule="evenodd" clip-rule="evenodd" d="M134.067 154.355C134.848 153.905 134.848 153.173 134.067 152.722L85.2759 124.545C84.4949 124.094 83.2289 124.094 82.4479 124.545C81.6669 124.997 81.6669 125.728 82.4479 126.179L131.238 154.355C132.019 154.806 133.286 154.806 134.067 154.355" fill="#F09CAB"/>
<path id="Fill 22" fill-rule="evenodd" clip-rule="evenodd" d="M121.339 153.538C122.12 153.087 122.12 152.355 121.339 151.905L79.6199 127.811C78.8389 127.361 77.5719 127.361 76.7909 127.811C76.0099 128.263 76.0099 128.994 76.7909 129.445L118.51 153.538C119.292 153.989 120.558 153.989 121.339 153.538" fill="#F09CAB"/>
</g>
</svg>
